<?xml version="1.0" encoding="utf-8"?>
<!-- Generator: Adobe Illustrator 16.0.3, SVG Export Plug-In . SVG Version: 6.00 Build 0)  -->
<!DOCTYPE svg PUBLIC "-//W3C//DTD SVG 1.1//EN" "http://www.w3.org/Graphics/SVG/1.1/DTD/svg11.dtd">
<svg version="1.1" id="Layer_1" xmlns="http://www.w3.org/2000/svg"  x="0px" y="0px"
	 width="64px" height="64px" viewBox="0 0 64 64" enable-background="new 0 0 64 64" xml:space="preserve">
<g>
	<rect x="17.791" y="40.205" fill="#E2F4FD" width="28.156" height="17.636"/>
	<rect x="17.791" y="36.017" fill="#64C3A7" width="27.254" height="4.188"/>
	<polygon fill="#E1F2F1" points="50.49,58.343 45.947,58.343 46.623,35.374 17.791,35.235 17.791,57.841 13.605,58.343 
		13.605,29.144 50.49,29.144 	"/>
	
		<line fill="none" stroke="#231F20" stroke-width="2" stroke-linecap="round" stroke-miterlimit="10" x1="13.605" y1="31.8" x2="13.605" y2="58.343"/>
	
		<line fill="none" stroke="#231F20" stroke-width="2" stroke-linecap="round" stroke-miterlimit="10" x1="50.49" y1="31.8" x2="50.49" y2="58.343"/>
	
		<line fill="none" stroke="#231F20" stroke-width="2" stroke-linecap="round" stroke-miterlimit="10" x1="9.1" y1="58.343" x2="54.9" y2="58.343"/>
	
		<rect x="17.791" y="36.017" fill="none" stroke="#231F20" stroke-width="2" stroke-linecap="round" stroke-miterlimit="10" width="28.156" height="21.824"/>
	
		<line fill="none" stroke="#231F20" stroke-width="2" stroke-linecap="round" stroke-miterlimit="10" x1="17.791" y1="40.205" x2="45.947" y2="40.205"/>
	
		<line fill="none" stroke="#231F20" stroke-width="2" stroke-linecap="round" stroke-miterlimit="10" x1="31.799" y1="49.732" x2="31.799" y2="57.841"/>
	
		<line fill="none" stroke="#231F20" stroke-width="2" stroke-linecap="square" stroke-miterlimit="10" x1="36.699" y1="52.972" x2="36.699" y2="57.841"/>
	
		<line fill="none" stroke="#231F20" stroke-width="2" stroke-linecap="square" stroke-miterlimit="10" x1="40.316" y1="52.972" x2="40.316" y2="57.841"/>
	
		<line fill="none" stroke="#231F20" stroke-width="2" stroke-linecap="round" stroke-miterlimit="10" x1="26.098" y1="49.021" x2="37.502" y2="49.021"/>
	<polyline fill="none" stroke="#231F20" stroke-width="2" stroke-linecap="round" stroke-miterlimit="10" points="42.947,46.611 
		41.342,52.823 34.604,52.823 	"/>
	
		<line fill="none" stroke="#231F20" stroke-width="2" stroke-linecap="square" stroke-miterlimit="10" x1="27.039" y1="52.972" x2="27.039" y2="57.841"/>
	
		<line fill="none" stroke="#231F20" stroke-width="2" stroke-linecap="square" stroke-miterlimit="10" x1="23.422" y1="52.972" x2="23.422" y2="57.841"/>
	<polyline fill="none" stroke="#231F20" stroke-width="2" stroke-linecap="round" stroke-miterlimit="10" points="20.791,46.611 
		22.395,52.823 29.133,52.823 	"/>
	<g>
		<path fill="#009789" d="M52.826,16.362V27.8c0,2.2-1.8,4-4,4h-0.359c-2.2,0-4-1.8-4-4V16.481"/>
		<path fill="none" stroke="#231F20" stroke-width="2" stroke-linecap="square" stroke-miterlimit="10" d="M52.826,16.362V27.8
			c0,2.2-1.8,4-4,4h-0.359c-2.2,0-4-1.8-4-4V16.481"/>
	</g>
	<g>
		<path fill="#B3E0DB" d="M44.467,16.657V27.8c0,2.2-1.8,4-4,4h-0.303c-2.2,0-4-1.8-4-4V16.773"/>
		<path fill="none" stroke="#231F20" stroke-width="2" stroke-linecap="round" stroke-miterlimit="10" d="M44.467,16.657V27.8
			c0,2.2-1.8,4-4,4h-0.303c-2.2,0-4-1.8-4-4V16.773"/>
	</g>
	<g>
		<path fill="#009789" d="M36.211,16.657V27.8c0,2.2-1.8,4-4,4h-0.303c-2.2,0-4-1.8-4-4V16.773"/>
		<path fill="none" stroke="#231F20" stroke-width="2" stroke-linecap="round" stroke-miterlimit="10" d="M36.211,16.657V27.8
			c0,2.2-1.8,4-4,4h-0.303c-2.2,0-4-1.8-4-4V16.773"/>
	</g>
	<g>
		<path fill="#B3E0DB" d="M27.908,16.055V27.8c0,2.2-1.8,4-4,4h-0.301c-2.2,0-4-1.8-4-4V16.176"/>
		<path fill="none" stroke="#231F20" stroke-width="2" stroke-linecap="round" stroke-miterlimit="10" d="M27.908,16.055V27.8
			c0,2.2-1.8,4-4,4h-0.301c-2.2,0-4-1.8-4-4V16.176"/>
	</g>
	<g>
		<path fill="#009789" d="M19.596,16.129V27.8c0,2.2-1.8,4-4,4h-0.301c-2.2,0-4-1.8-4-4V16.25"/>
		<path fill="none" stroke="#231F20" stroke-width="2" stroke-linecap="round" stroke-miterlimit="10" d="M19.596,16.129V27.8
			c0,2.2-1.8,4-4,4h-0.301c-2.2,0-4-1.8-4-4V16.25"/>
	</g>
	<polyline fill="none" stroke="#231F20" stroke-width="2" stroke-linecap="round" stroke-miterlimit="10" points="52.826,24.734 
		52.826,16.043 11.295,16.043 11.295,24.667 	"/>
</g>
</svg>
