<?xml version="1.0" encoding="utf-8"?>
<!-- Generator: Adobe Illustrator 16.0.3, SVG Export Plug-In . SVG Version: 6.00 Build 0)  -->
<!DOCTYPE svg PUBLIC "-//W3C//DTD SVG 1.1//EN" "http://www.w3.org/Graphics/SVG/1.1/DTD/svg11.dtd">
<svg version="1.1" id="Layer_1" xmlns="http://www.w3.org/2000/svg"  x="0px" y="0px"
	 width="64px" height="64px" viewBox="0 0 64 64" enable-background="new 0 0 64 64" xml:space="preserve">
<g>
	<g>
		<circle fill="#BEE1C3" cx="27.943" cy="28.165" r="3.095"/>
		<circle fill="#BEE1C3" cx="22.618" cy="27.664" r="4.713"/>
		<circle fill="#BEE1C3" cx="31.131" cy="26.846" r="2.296"/>
		<rect x="18.492" y="31.482" fill="#64C3A7" width="13.813" height="26.86"/>
		<polygon fill="#BEE1C3" points="33.232,31.482 18.357,31.482 17.904,28.86 33.654,28.86 		"/>
		
			<line fill="none" stroke="#231F20" stroke-width="2" stroke-linecap="round" stroke-miterlimit="10" x1="27.187" y1="8.597" x2="21.555" y2="49.733"/>
		<path fill="none" stroke="#231F20" stroke-width="2" stroke-linecap="round" stroke-miterlimit="10" d="M15.4,26.424
			c0-4.919,4.461-8.907,9.963-8.907c5.503,0,9.963,3.988,9.963,8.907"/>
		<polyline fill="none" stroke="#231F20" stroke-width="2" stroke-linecap="round" stroke-miterlimit="10" points="25.377,58.343 
			31.411,58.343 33.215,28.078 25.377,28.079 25.42,28.079 17.582,28.079 19.387,58.343 25.42,58.343 		"/>
		<g>
			<path fill="#231F20" d="M29.473,53.2c-0.072,0.545-0.577,0.925-1.121,0.844l-1.317-0.197c-0.544-0.081-0.93-0.594-0.857-1.139
				l0.235-1.771c0.073-0.545,0.577-0.925,1.121-0.844l1.318,0.196c0.544,0.081,0.93,0.594,0.857,1.139L29.473,53.2z"/>
			<path fill="none" stroke="#231F20" stroke-linecap="round" stroke-miterlimit="10" d="M29.473,53.2
				c-0.072,0.545-0.577,0.925-1.121,0.844l-1.317-0.197c-0.544-0.081-0.93-0.594-0.857-1.139l0.235-1.771
				c0.073-0.545,0.577-0.925,1.121-0.844l1.318,0.196c0.544,0.081,0.93,0.594,0.857,1.139L29.473,53.2z"/>
		</g>
		<g>
			<path fill="#231F20" d="M28.366,46.28c0.234,0.498,0.013,1.085-0.491,1.306l-1.277,0.558c-0.504,0.221-1.108-0.007-1.342-0.504
				l-0.734-1.561c-0.234-0.497-0.014-1.085,0.491-1.305l1.277-0.559c0.504-0.22,1.108,0.007,1.342,0.505L28.366,46.28z"/>
			<path fill="none" stroke="#231F20" stroke-linecap="round" stroke-miterlimit="10" d="M28.366,46.28
				c0.234,0.498,0.013,1.085-0.491,1.306l-1.277,0.558c-0.504,0.221-1.108-0.007-1.342-0.504l-0.734-1.561
				c-0.234-0.497-0.014-1.085,0.491-1.305l1.277-0.559c0.504-0.22,1.108,0.007,1.342,0.505L28.366,46.28z"/>
		</g>
		<g>
			<path fill="#231F20" d="M24.674,54.575c0.089,0.542-0.286,1.027-0.834,1.077l-1.328,0.121c-0.548,0.05-1.069-0.354-1.159-0.896
				l-0.263-1.59c-0.089-0.542,0.286-1.027,0.833-1.077l1.33-0.121c0.548-0.05,1.069,0.354,1.158,0.896L24.674,54.575z"/>
			<path fill="none" stroke="#231F20" stroke-linecap="round" stroke-miterlimit="10" d="M24.674,54.575
				c0.089,0.542-0.286,1.027-0.834,1.077l-1.328,0.121c-0.548,0.05-1.069-0.354-1.159-0.896l-0.263-1.59
				c-0.089-0.542,0.286-1.027,0.833-1.077l1.33-0.121c0.548-0.05,1.069,0.354,1.158,0.896L24.674,54.575z"/>
		</g>
	</g>
	
		<line fill="none" stroke="#231F20" stroke-width="2" stroke-linecap="round" stroke-miterlimit="10" x1="9.1" y1="58.343" x2="54.9" y2="58.343"/>
	<polyline fill="#B3E0DB" stroke="#231F20" stroke-width="2" stroke-linecap="round" stroke-miterlimit="10" points="38.814,58.343 
		44.848,58.343 46.652,36.718 38.814,36.718 38.857,36.718 31.02,36.718 32.824,58.343 38.857,58.343 	"/>
	<polyline fill="#25A69A" stroke="#231F20" stroke-width="2" stroke-linecap="round" stroke-miterlimit="10" points="38.881,33.944 
		48.068,33.943 48.5,36.718 38.877,36.718 38.795,36.718 29.174,36.718 29.604,33.944 38.791,33.944 	"/>
	<polyline fill="#B3E0DB" stroke="#231F20" stroke-width="2" stroke-linecap="round" stroke-miterlimit="10" points="38.875,30.348 
		46.652,30.348 47.018,33.623 38.869,33.624 38.803,33.624 30.656,33.624 31.021,30.348 38.799,30.348 	"/>
</g>
</svg>
