<?xml version="1.0" encoding="utf-8"?>
<!-- Generator: Adobe Illustrator 16.0.3, SVG Export Plug-In . SVG Version: 6.00 Build 0)  -->
<!DOCTYPE svg PUBLIC "-//W3C//DTD SVG 1.1//EN" "http://www.w3.org/Graphics/SVG/1.1/DTD/svg11.dtd">
<svg version="1.1" id="Layer_1" xmlns="http://www.w3.org/2000/svg"  x="0px" y="0px"
	 width="2000px" height="1070.968px" viewBox="0 0 2000 1070.968" enable-background="new 0 0 2000 1070.968" xml:space="preserve">
<g>
	<path fill="#FFFFFF" d="M1224.059,352.272c0,84.492-119.475,152.992-266.852,152.992
		c-147.381,0.004-281.684-205.082-281.684-289.574c0-84.496,118.951,0,266.332,0
		C1089.233,215.689,1224.059,267.776,1224.059,352.272z"/>
</g>
<g>
	<path fill="#F1F1F2" d="M874.48,240.013c0,0,266.226,47.925,280.228,98.19c13.115,47.089-31.26,105.074-91.976,125.315
		c-67.844,22.614-206.885-2.325-182.88,21.653c24.009,23.982,373.448,93.611,435.426-204.158
		c36.579-175.759-17.392-97.541-34.256-93.048c-16.864,4.494-310.248,34.437-339.167,27.724
		C899.162,205.774,820.482,241.453,874.48,240.013z"/>
</g>
<g>
	<g>
		<path fill="#231F20" d="M826.219,329.17c31.845,11.106,101.782,24.309,162.323,11.216c60.539-13.086,62.533,41.5,36.906,65.952
			c-19.975,19-65.557,39.053-117.959,30.83c-52.432-8.212-125.769-36.43-123.271-93.219
			C784.862,329.34,794.38,318.047,826.219,329.17z"/>
		<path fill="#231F20" d="M931.812,440.864c-8.216,0-16.492-0.644-24.604-1.917c-59.087-9.256-127.228-39.708-124.791-95.079
			c0.595-13.537,8.369-20.989,21.889-20.989c6.213,0,13.783,1.545,22.505,4.592c21.91,7.641,62.993,16.565,106.662,16.565
			c19.687,0,38.087-1.82,54.688-5.411c26.301-5.682,45.314,1.039,52.089,17.962c6.296,15.723,0.468,37.67-13.56,51.053
			C1010.579,422.966,976.062,440.864,931.812,440.864z M804.307,326.481c-11.624,0-17.776,5.904-18.289,17.543
			c-1.458,33.125,29.554,76.922,121.749,91.36c7.928,1.248,16.017,1.877,24.045,1.877c40.421,0,75.528-16.188,92.394-32.231
			c13.019-12.422,18.479-32.674,12.698-47.104c-6.074-15.179-23.604-21.039-47.982-15.779c-16.85,3.643-35.507,5.491-55.448,5.491
			c-44.118,0-85.672-9.031-107.85-16.767C817.286,327.958,810.112,326.481,804.307,326.481z"/>
	</g>
	<g>
		<g>
			<path fill="#F6968E" d="M912.729,383.527c67.388,6.386,89.448,42.557,89.448,42.557s-34.26,20.478-83.571,15.737
				c-50.915-4.897-84.714-25.204-84.714-25.204S845.34,377.135,912.729,383.527z"/>
		</g>
		<g>
			<path fill="#D4807B" d="M831.103,415.609c0,0,31.439,18.841,84.086,26.708c49.496,7.387,89.407-17.76,89.407-17.76
				c-0.824-1.335-20.573-32.766-78.389-42.332c-4.352-0.717-8.846-1.295-13.379-1.725
				C843.98,373.973,831.618,413.902,831.103,415.609z M837.592,415.322c3.677-8.165,19.711-34.018,75.002-28.774
				c4.419,0.429,8.805,0.985,13.011,1.691c45.128,7.463,66.081,29.116,72.175,36.71c-9.127,4.573-39.163,17.68-79.077,13.826
				c-5.169-0.484-10.443-1.167-15.59-2.03C869.16,431.127,844.948,419.269,837.592,415.322z"/>
		</g>
	</g>
	<g>
		<path fill="#231F20" d="M778.411,343.321c-1.207,27.314,13.699,51.522,43.028,69.999c29.527,18.576,64.854,26.453,83.277,29.505
			c0.75,0.117,1.502,0.259,2.208,0.365c52.325,8.223,100.212-10.974,122.545-32.249c14.446-13.78,20.866-36.23,15.324-53.375
			c-4.316-13.326-14.96-22.028-29.929-24.512l0,0c-8.066-1.326-17.383-0.885-27.768,1.371c-43.25,9.349-88.951,4.244-112.366,0.364
			c-17.552-2.891-34.216-6.934-46.93-11.375c-5.544-1.947-10.66-3.3-15.271-4.057c-11.188-1.867-19.912-0.266-25.845,4.74
			C781.66,328.345,778.798,335.006,778.411,343.321z M784.217,343.949c0.528-12.137,7.218-21.979,27.738-18.574
			c4.169,0.668,8.905,1.914,14.263,3.795c11.663,4.061,28.402,8.414,47.909,11.638c33.877,5.615,76.021,7.872,114.414-0.422
			c10.201-2.194,18.705-2.491,25.72-1.335c34.707,5.755,32.492,46.951,11.187,67.287c-19.975,19-65.557,39.053-117.959,30.83
			c-0.705-0.102-1.453-0.222-2.171-0.342C853.062,428.159,781.772,399.97,784.217,343.949z"/>
		<path fill="#231F20" d="M931.931,450.241c-0.001,0,0,0-0.004,0c-8.643,0-17.321-0.677-25.795-2.005l-2.219-0.368
			c-18.849-3.125-54.937-11.192-85.194-30.225c-30.999-19.532-46.701-45.308-45.41-74.549c0.455-9.798,3.942-17.712,10.083-22.899
			c7.102-5.993,17.27-8,29.979-5.876c4.932,0.813,10.361,2.254,16.126,4.28c12.456,4.347,28.816,8.311,46.065,11.151
			c13.383,2.218,34.267,4.861,57.777,4.861c19.063,0,36.787-1.743,52.681-5.179c10.91-2.369,20.958-2.853,29.673-1.415
			c16.969,2.814,29.028,12.747,33.96,27.973c6.12,18.939-0.888,43.601-16.661,58.643
			C1015.751,431.062,978.939,450.241,931.931,450.241z M804.323,329.798c-9.947,0-14.573,4.434-15.004,14.371
			c-2.182,50.013,61.574,78.455,116.835,87.617c0.686,0.117,1.395,0.229,2.067,0.328c7.817,1.227,15.733,1.844,23.59,1.844
			c39.51,0,73.729-15.733,90.116-31.321c11.367-10.846,16.679-28.279,12.625-41.443c-2.892-9.381-10.196-15.295-21.127-17.107
			c-6.661-1.097-14.737-0.665-23.809,1.292c-33.626,7.265-74.839,7.344-116.324,0.467c-18.042-2.981-35.359-7.189-48.753-11.854
			c-4.971-1.746-9.474-2.947-13.392-3.577C808.669,330.004,806.381,329.798,804.323,329.798z"/>
	</g>
</g>
<g>
	<g>
		<path fill="#211F1F" d="M1000.485,275.659c0,15.107-12.245,27.344-27.347,27.346c-15.113,0-27.35-12.237-27.35-27.342
			c0-15.108,12.236-27.35,27.35-27.35C988.24,248.313,1000.485,260.556,1000.485,275.659z"/>
	</g>
	<g>
		<path fill="#FFFFFF" d="M990.921,265.739c0,5.98-4.81,10.792-10.75,10.792c-5.959,0-10.773-4.812-10.773-10.792
			c0-5.938,4.813-10.756,10.773-10.756C986.111,254.982,990.921,259.8,990.921,265.739z"/>
	</g>
</g>
<g>
	<g>
		<path fill="#211F1F" d="M851.39,265.76c0,15.106-12.245,27.343-27.346,27.346c-15.112,0-27.351-12.236-27.351-27.342
			c0-15.107,12.238-27.351,27.351-27.351C839.145,238.413,851.39,250.657,851.39,265.76z"/>
	</g>
	<g>
		<path fill="#FFFFFF" d="M841.825,255.837c0,5.982-4.808,10.794-10.749,10.794c-5.958,0-10.772-4.812-10.772-10.794
			c0-5.938,4.814-10.755,10.772-10.755C837.018,245.082,841.825,249.9,841.825,255.837z"/>
	</g>
</g>
<g>
	<path fill="#E6E7E8" d="M947.753,526.441c-14.104,0-28.551-0.51-43.367-1.532l2.107-30.564
		c140.387,9.686,245.711-29.214,313.083-115.635c54.947-70.476,68.442-152.512,71.693-184.511l30.479,3.097
		c-3.52,34.64-18.167,123.493-78.009,200.251C1176.974,483.181,1077.527,526.441,947.753,526.441z"/>
</g>
<g>
	<path fill="#231F20" d="M1298.047,428.766c-22.521,0-44.037-6.964-62.229-20.136l23.963-33.082
		c11.172,8.088,24.406,12.371,38.266,12.371c36.024,0,65.331-29.309,65.331-65.335c0-30.844-21.876-57.748-52.017-63.975
		l8.263-40.004c49.021,10.128,84.603,53.858,84.603,103.979C1404.227,381.133,1356.594,428.766,1298.047,428.766z"/>
</g>
<g>
	<g>
		<path fill="#231F20" d="M1000.666,544.234c-190.547,0-345.567-155.023-345.567-345.573c0-15.672,1.062-31.44,3.156-46.867
			l40.476,5.492c-1.846,13.612-2.783,27.533-2.783,41.375c0,168.027,136.695,304.722,304.719,304.722
			c168.022,0,304.718-136.695,304.718-304.723c0-13.895-0.94-27.863-2.802-41.517l40.479-5.51
			c2.106,15.475,3.173,31.296,3.173,47.028C1346.233,389.211,1191.211,544.234,1000.666,544.234z"/>
	</g>
	<g>
		<path fill="#231F20" d="M1000.79,236.113c-87.406,0-169.754-5.848-231.872-16.465c-78.229-13.37-111.609-31.069-111.609-59.177
			c0-28.108,33.381-45.806,111.609-59.178c62.117-10.617,144.465-16.464,231.872-16.464c87.413,0,169.766,5.847,231.886,16.464
			c78.23,13.372,111.608,31.068,111.608,59.177c0,28.109-33.378,45.807-111.608,59.178
			C1170.556,230.266,1088.202,236.113,1000.79,236.113z M705.035,160.471c10.933,5.286,35.099,13.751,86.348,21.402
			c57.838,8.635,132.212,13.39,209.407,13.39c77.204,0,151.577-4.755,209.421-13.39c51.246-7.651,75.415-16.118,86.348-21.403
			c-10.933-5.286-35.102-13.75-86.348-21.402c-57.845-8.635-132.218-13.39-209.421-13.39c-77.195,0-151.569,4.755-209.407,13.39
			C740.134,146.72,715.967,155.185,705.035,160.471z"/>
	</g>
</g>
<g>
	<path fill="#C3996B" d="M1299.306,159.405c0,20.825-121.435,36.343-289.726,36.343c-168.295,0-310.709-15.511-310.709-36.335
		c0-10.653,37.936-19.92,97.533-26.428c18.219-1.992,38.462-3.722,60.262-5.159c17.009-1.119,30.389-16.701,48.774-20.127
		c8.375-1.563,23.482,4.277,30.283-0.173c25.238-16.515,33.688-57.374,55.198-57.374c19.147,0,9.876,55.103,43.969,55.707
		c17.186,0.306,26.046-2.928,49.46-33.225c18.659-24.146,15.881-51.626,41.429-46.835c28.821,5.404-4.253,82.541,23.022,90.585
		c36.306,10.71,41.597-30.649,53.893-29.619c15.246,1.281,8.633,32.166,21.365,33.795c15.564,1.988,24.334-13.999,35.017-9.871
		c9.255,3.578,21.027,27.1,26.682,31.181C1294.828,148.421,1299.305,154.965,1299.306,159.405z"/>
</g>
<g>
	<path fill="#231F20" d="M784.15,608.233c-4.208,0-8.435-1.296-12.045-3.938l-36.444-26.634
		c-9.107-6.655-11.094-19.435-4.438-28.545c6.66-9.104,19.439-11.094,28.541-4.436l22.548,16.483l72.874-70.571
		c8.104-7.845,21.032-7.641,28.88,0.466c7.849,8.1,7.639,21.031-0.464,28.88l-85.24,82.542
		C794.433,606.29,789.305,608.233,784.15,608.233z"/>
</g>
<g>
	<path fill="#231F20" d="M1080.188,671.297c-6.179,0-12.281-2.791-16.299-8.092c-6.81-8.999-5.039-21.806,3.953-28.618l22.26-16.847
		l-46.664-90.052c-5.19-10.013-1.277-22.34,8.735-27.529c10.021-5.192,22.344-1.277,27.532,8.736l54.585,105.334
		c4.575,8.838,2.124,19.678-5.807,25.685L1092.5,667.16C1088.812,669.951,1084.48,671.297,1080.188,671.297z"/>
</g>
<g>
	<g>
		<path fill="#009688" d="M38.988,890.581c0.38-74.529,62.859-135.135,138.146-135.513c33.129,0,63.235,10.924,86.957,29.36
			c9.031,7.535,10.535,20.7,3.768,30.121c-7.528,9.402-21.46,10.912-30.119,4.137c-16.566-13.558-37.27-20.7-60.606-20.7
			c-25.971,0-50.071,10.533-67.758,27.104C92.436,842.396,81.9,864.983,81.9,890.581c0,25.595,10.536,48.932,27.475,65.487
			c17.687,16.571,41.787,27.107,67.758,27.107c23.336,0,43.668-7.142,60.606-20.699c8.658-6.4,22.59-4.891,30.119,4.138
			c6.768,9.42,5.263,22.959-3.768,30.116c-23.722,18.443-53.828,29.37-86.957,29.37C101.847,1026.098,39.369,965.485,38.988,890.581
			z"/>
		<path fill="#009688" d="M177.134,1034.761c-80.555,0-146.409-64.658-146.814-144.129c0.406-79.169,66.234-143.827,146.767-144.23
			c34.181,0,66.091,10.778,92.317,31.188c12.633,10.515,14.94,28.89,5.484,42.014l-0.266,0.361
			c-5.8,7.251-14.878,11.566-24.278,11.566c-6.608,0-12.988-2.133-17.95-6.014c-15.129-12.379-34.187-18.871-55.259-18.871
			c-22.758,0-44.657,8.751-61.689,24.641c-16.273,16.702-24.87,37.197-24.87,59.295c0,22.229,9.062,43.853,24.861,59.291
			c16.917,15.85,38.875,24.656,61.698,24.656c21.027,0,39.593-6.348,55.19-18.827l0.264-0.196
			c4.891-3.609,11.147-5.611,17.615-5.611c9.533,0,18.395,4.083,24.306,11.183l0.379,0.479c9.524,13.23,7.095,32.063-5.413,41.972
			C243.177,1023.979,211.267,1034.761,177.134,1034.761z M177.134,763.739c-71.022,0.356-129.127,57.271-129.467,126.893
			c0.34,69.872,58.43,126.795,129.467,126.795c30.248,0,58.466-9.515,81.633-27.529c5.127-4.068,6.143-12.244,2.224-17.957
			c-2.579-2.947-6.586-4.701-10.789-4.701c-2.732,0-5.284,0.753-7.195,2.129c-18.723,14.914-40.88,22.475-65.873,22.475
			c-27.236,0-53.408-10.445-73.684-29.429c-19.25-18.829-30.222-44.962-30.222-71.833c0-26.79,10.359-51.522,29.951-71.549
			l0.271-0.284c20.28-18.985,46.448-29.425,73.684-29.425c25.113,0,47.973,7.829,66.097,22.657c1.777,1.393,4.355,2.216,7.112,2.216
			c4.106,0,8.057-1.823,10.604-4.895c4.008-5.763,2.973-13.721-2.409-18.204C235.609,773.262,207.381,763.739,177.134,763.739z"/>
	</g>
	<g>
		<path fill="#009688" d="M434.974,1026.101c-60.605,0-108.787-48.932-108.787-108.783V783.309c0-11.669,9.031-20.705,20.709-20.705
			c11.283,0,21.077,9.036,21.077,20.705v134.009c0,36.889,30.111,66.998,67.001,66.998c37.265,0,66.998-30.109,66.998-66.998
			v-134.01c0-11.668,9.418-20.703,21.082-20.703c11.675,0,20.706,9.035,20.706,20.703v134.01
			C543.759,977.169,495.2,1026.102,434.974,1026.101z"/>
		<path fill="#009688" d="M434.974,1034.761c-64.762,0-117.454-52.68-117.454-117.443V783.309c0-16.473,12.899-29.382,29.376-29.382
			c16.399,0,29.744,13.175,29.744,29.382v134.009c0,32.158,26.165,58.326,58.334,58.326c32.167,0.001,58.334-26.168,58.334-58.326
			v-134.01c0-16.472,13.066-29.381,29.745-29.381c16.474,0,29.371,12.909,29.371,29.381v134.01
			C552.424,982.081,499.741,1034.761,434.974,1034.761z M346.896,771.271c-6.86,0-12.037,5.174-12.037,12.037v134.009
			c0,55.198,44.908,100.109,100.115,100.109c55.201,0,100.122-44.912,100.122-100.109v-134.01c0-6.861-5.178-12.036-12.042-12.036
			c-6.954,0-12.408,5.282-12.408,12.036v134.01c0,41.718-33.94,75.665-75.671,75.665c-41.726,0-75.667-33.947-75.667-75.665V783.309
			C359.308,776.667,353.738,771.271,346.896,771.271z"/>
	</g>
	<g>
		<path fill="#009688" d="M705.237,923.706H658.93v81.681c0,11.298-9.406,20.715-21.075,20.715
			c-11.292,0-20.703-9.417-20.703-20.715V783.308c0-11.672,9.411-20.707,20.703-20.707h0.375h67.007
			c44.792,0,80.931,36.131,80.931,80.934C786.168,887.575,750.028,923.706,705.237,923.706z M658.93,881.922h46.307
			c21.832,0,38.773-17.31,39.144-38.388c-0.371-21.839-17.312-39.151-39.144-39.151H658.93V881.922z"/>
		<path fill="#009688" d="M637.855,1034.761c-16.194,0-29.378-13.179-29.378-29.374V783.308c0-16.206,13.184-29.381,29.378-29.381
			h67.382c49.403,0,89.604,40.21,89.604,89.607c0,48.982-40.201,88.844-89.604,88.844h-37.632v73.009
			C667.604,1021.582,654.264,1034.761,637.855,1034.761z M637.855,771.271c-6.748,0-12.029,5.282-12.029,12.036v222.079
			c0,6.523,5.503,12.04,12.029,12.04c6.844,0,12.41-5.402,12.41-12.04v-90.35h54.972c39.838,0,72.255-32.078,72.255-71.503
			c0-39.84-32.417-72.263-72.255-72.263H637.855z M705.237,890.599h-54.972v-94.887h54.972c26.356,0,47.356,20.939,47.816,47.673
			C752.584,869.993,731.58,890.599,705.237,890.599z M667.604,873.259h37.632c16.792,0,30.176-13.133,30.482-29.874
			c-0.306-16.888-13.69-30.335-30.482-30.335h-37.632V873.259z"/>
	</g>
	<g>
		<path fill="#009688" d="M1009.228,804.383h-59.85v201.004c0,11.675-9.036,20.715-20.708,20.715
			c-11.288,0-20.705-9.04-20.705-20.715V804.383h-59.464c-11.68,0-20.715-9.781-20.715-21.075c0-11.672,9.035-20.707,20.715-20.707
			h160.727c11.292,0,20.703,9.035,20.703,20.704C1029.931,794.598,1020.52,804.383,1009.228,804.383z"/>
		<path fill="#009688" d="M928.67,1034.761c-16.196,0-29.37-13.179-29.37-29.374V813.05h-50.799
			c-16.199,0-29.379-13.346-29.379-29.742c0-16.472,12.904-29.381,29.379-29.381h160.727c16.193,0,29.369,13.175,29.369,29.378
			c0,16.115-13.45,29.745-29.369,29.745h-51.176v192.337C958.052,1021.874,945.144,1034.761,928.67,1034.761z M848.501,771.271
			c-6.865,0-12.044,5.175-12.044,12.036c0,6.833,5.4,12.404,12.044,12.404h68.138v209.675c0,6.741,5.291,12.04,12.031,12.04
			c6.863,0,12.033-5.182,12.033-12.04V795.712h68.524c6.405,0,12.032-5.803,12.032-12.407c0-6.751-5.287-12.037-12.032-12.037
			L848.501,771.271z"/>
	</g>
	<g>
		<path fill="#009688" d="M1277.348,795.345c23.333,24.851,38.014,57.981,38.014,95.232c0,37.278-14.681,70.771-38.014,95.244
			c-22.22,24.466-55.334,40.28-89.977,40.28c-36.135,0-69.256-15.814-92.217-40.28c-23.334-24.473-37.264-57.966-37.264-95.244
			c0-37.251,13.93-70.382,37.264-95.232c22.961-24.845,56.082-40.276,92.217-40.276
			C1222.014,755.068,1255.128,770.5,1277.348,795.345z M1272.453,890.577c0-25.59-10.168-49.311-25.6-65.868
			c-15.806-16.938-36.886-26.723-59.482-26.723c-24.085,0-45.169,9.784-60.976,26.723c-15.804,16.558-25.598,40.278-25.598,65.868
			c0,25.602,9.794,49.318,25.598,65.499c15.807,16.944,36.891,27.1,60.976,27.1c22.597,0,43.677-10.155,59.482-27.1
			C1262.285,939.896,1272.453,916.179,1272.453,890.577z"/>
		<path fill="#009688" d="M1187.371,1034.761c-36.961,0-72.881-15.679-98.542-43.012c-25.521-26.769-39.612-62.701-39.612-101.172
			c0-38.041,14.075-73.973,39.619-101.164c25.246-27.314,61.176-43.012,98.535-43.012c36.223,0,72.273,16.134,96.438,43.157
			c25.883,27.563,40.226,63.493,40.226,101.019c0,37.963-14.356,73.904-40.418,101.227
			C1259.262,1018.643,1223.226,1034.761,1187.371,1034.761z M1187.371,763.739c-32.526,0-63.825,13.66-85.848,37.492
			c-22.568,24.015-34.957,55.732-34.957,89.346c0,33.996,12.369,65.688,34.859,89.263c22.441,23.897,53.755,37.587,85.945,37.587
			c31.045,0,62.28-14.009,83.553-37.434c23.117-24.244,35.764-55.93,35.764-89.416c0-33.1-12.663-64.811-35.661-89.295
			C1249.959,777.712,1218.736,763.739,1187.371,763.739z M1187.371,991.843c-25.436,0-49.349-10.599-67.306-29.851
			c-17.703-18.112-27.931-44.194-27.931-71.415c0-27.027,10.206-53.221,27.991-71.862c17.938-19.207,41.221-29.396,67.245-29.396
			c24.704,0,48.072,10.465,65.817,29.476c17.747,19.052,27.928,45.214,27.928,71.782c0,26.788-10.206,52.83-27.991,71.488
			C1235.228,981.244,1211.856,991.843,1187.371,991.843z M1187.371,806.644c-21.102,0-39.998,8.299-54.639,23.974
			c-14.801,15.522-23.26,37.354-23.26,59.96c0,22.727,8.427,44.389,23.131,59.451c14.998,16.055,33.889,24.496,54.768,24.496
			c19.62,0,38.487-8.657,53.149-24.357c14.8-15.537,23.258-37.227,23.258-59.59c0-22.227-8.483-44.085-23.275-59.96
			C1226.088,815.164,1207.218,806.644,1187.371,806.644z"/>
	</g>
	<g>
		<path fill="#009688" d="M1700.806,793.845l-92.217,219.44c-0.382,1.14-1.136,2.646-1.896,3.399l-0.366,0.378
			c-0.384,0.746-1.133,1.511-1.888,2.261c0,0.756-0.375,0.756-0.375,1.119c-0.752,0.391-1.877,1.14-2.629,1.885h-0.379
			c-1.134,0.754-1.884,1.893-3.396,2.257h-0.368c0,0-0.376,0-0.376,0.378c-0.762,0-1.884,0.379-3.017,0.761c-0.379,0-0.75,0-0.75,0
			c-1.129,0.379-2.26,0.379-3.764,0.379c-1.129,0-2.256,0-3.392-0.379c-0.752,0-1.128,0-1.128,0
			c-1.131-0.382-1.878-0.761-2.637-0.761c-0.377-0.378-0.377-0.378-0.762-0.378c-1.493-0.364-2.63-1.503-3.379-2.257
			c-0.379,0-0.379,0-0.379,0c-1.122-0.745-1.879-1.494-2.629-1.885c-0.382-0.363-0.382-0.363-0.748-1.119
			c-0.383-0.75-1.137-1.515-1.515-2.261c-0.751,0-0.751-0.378-0.751-0.378c-0.75-0.754-1.124-2.26-1.511-3.399l-49.303-116.688
			l-49.31,116.688c-0.375,1.14-1.136,2.646-1.503,3.399c-0.382,0-0.382,0.378-0.382,0.378c-0.756,0.746-1.505,1.511-2.257,2.261
			c0,0.756-0.376,0.756-0.376,1.119c-0.761,0.391-1.509,1.14-2.266,1.885c-0.749,0-0.749,0-0.749,0
			c-1.126,0.754-2.263,1.893-3.015,2.257c-0.377,0-0.377,0-0.377,0s-0.372,0-0.372,0.378c-1.505,0-2.259,0.379-3.015,0.761
			c-0.375,0-0.754,0-1.128,0c-1.126,0.379-2.254,0.379-3.383,0.379c-1.137,0-2.636,0-3.765-0.379c-0.376,0-0.754,0-1.137,0
			c-1.126-0.382-1.878-0.761-2.632-0.761c-0.372-0.378-0.372-0.378-0.749-0.378c-1.132-0.364-2.64-1.503-3.39-2.257
			c-0.375,0-0.375,0-0.375,0c-1.129-0.745-1.505-1.494-2.639-1.885c-0.376-0.363-0.376-0.363-0.751-1.119
			c-0.754-0.75-1.136-1.515-1.886-2.261v-0.378c-0.754-0.754-1.127-2.26-1.883-3.399l-92.602-219.44
			c-4.14-10.165,0.379-22.595,11.3-26.732c10.16-4.512,22.583,0.382,26.725,10.92l73.782,174.285l48.552-115.562
			c3.39-8.285,11.299-12.803,19.579-12.803c7.899,0,15.807,4.518,19.571,12.803l48.561,115.562l73.396-174.285
			c4.52-10.538,16.567-15.432,27.479-10.92C1700.435,771.25,1705.326,783.68,1700.806,793.845z"/>
		<path fill="#009688" d="M1589.387,1034.761c-1.129,0-2.699,0-4.487-0.379h-1.44l-1.334-0.437
			c-0.316-0.104-0.609-0.214-0.875-0.309l-3.951-1.339c-1.447-0.633-2.638-1.449-3.562-2.198l-0.832-0.557
			c-0.689-0.465-1.286-0.909-1.826-1.342l-0.237-0.183l-0.911-0.448l-1.005-1.011c-1.006-1.015-1.51-1.758-2.08-2.834
			c-0.851-0.678-1.578-1.471-2.149-2.387c-1.239-1.77-1.831-3.632-2.212-4.848l-0.055-0.174l-41.175-97.438l-41.22,97.532
			c-0.359,1.031-0.83,2.061-1.312,3.068v1.179l-1.166,1.161l-1.456,2.936v1.062l-4.297,2.139c-0.175,0.149-0.336,0.328-0.511,0.499
			l-1.978,1.983l-8.126,3.198l-1.297,0.64l-2.29,0.105c-1.786,0.379-3.357,0.379-4.479,0.379c-1.248,0-2.974,0-4.829-0.379h-1.475
			l-1.337-0.437c-0.312-0.104-0.602-0.214-0.871-0.309h-2.615l-1.44-1.455c-0.755-0.356-1.457-0.772-2.088-1.184h-0.023
			l-2.185-1.455c-0.614-0.407-1.122-0.814-1.579-1.208l-0.93-0.294l-1.441-1.459c-0.829-0.833-1.323-1.482-1.787-2.267
			c-0.251-0.311-0.48-0.619-0.719-0.922l-0.23-0.312l-2.541-2.529l0.05-1.598c-0.08-0.163-0.157-0.319-0.222-0.469
			c-0.076-0.186-0.164-0.363-0.249-0.535l-0.677-1.276L1333.333,797.2c-3.009-7.367-2.905-15.711,0.255-22.956
			c3.062-7.015,8.637-12.39,15.723-15.147c3.566-1.55,7.361-2.336,11.273-2.336c11.793,0,22.576,7.277,26.824,18.099l65.688,155.157
			l40.591-96.619c4.494-10.979,15.318-18.106,27.568-18.106c11.743,0,22.523,7.016,27.461,17.884l40.681,96.776l65.404-155.285
			c4.672-10.887,15.301-17.905,27.111-17.905c3.99,0,7.922,0.798,11.66,2.343c6.911,2.811,12.559,8.556,15.445,15.73
			c2.942,7.288,2.832,15.501-0.289,22.53l-92.042,219.029c-0.489,1.368-1.591,3.973-3.504,6.055c-0.149,0.204-0.298,0.414-0.443,0.6
			l-4.8,5.149c-0.087,0.058-0.332,0.218-0.431,0.316l-1.927,1.925l-8.006,3.198c-0.3,0.083-0.614,0.204-0.928,0.309l-1.335,0.437
			h-1.067C1592.454,1034.761,1590.846,1034.761,1589.387,1034.761z M1451.821,1017.405c0.438,0.039,0.914,0.021,1.303,0.021
			c0.285,0,0.575,0.018,0.867,0l1.11-0.364h0.782c0.506-0.188,1.093-0.353,1.743-0.483c0.021-0.008,0.033-0.012,0.053-0.021
			c0.622-0.496,1.27-1.006,1.924-1.438l0.385-0.266l3.149-3.141c0.072-0.088,0.122-0.16,0.194-0.236
			c0.238-0.506,0.337-0.771,0.383-0.924l0.244-0.633l57.296-135.594l56.647,134.065h0.279l2.148,4.282l0.412,0.61
			c0.078,0.121,0.17,0.241,0.268,0.379h0.673l2.533,2.539c0.048,0.045,0.087,0.085,0.125,0.136c0.43,0.119,0.826,0.27,1.179,0.444
			c0.306,0.091,0.593,0.177,0.853,0.279h1.027l1.112,0.364c0.284,0.016,0.583,0,0.875,0c0.467,0,0.89,0.018,1.264-0.018l1.098-0.347
			h0.779c0.287-0.103,0.578-0.185,0.868-0.262c0.423-0.2,0.851-0.37,1.31-0.502c0.487-0.419,0.994-0.8,1.535-1.179l0.408-0.27
			l1.666-1.659c0.166-0.179,0.345-0.339,0.503-0.517l0.378-0.76l1.011-0.994c0.052-0.12,0.125-0.277,0.151-0.367l0.233-0.611
			l92.227-219.463c1.295-2.918,1.312-6.203,0.124-9.165c-1.16-2.886-3.275-5.076-5.945-6.165
			c-6.588-2.731-13.629,0.201-16.234,6.299l-81.383,193.221l-56.544-134.551c-2.492-5.477-7.628-7.499-11.58-7.499
			c-4.119,0-9.317,1.945-11.558,7.411l-56.551,134.603l-81.787-193.216c-1.748-4.455-6.051-7.311-10.775-7.311
			c-1.55,0-3.046,0.302-4.441,0.92l-0.451,0.2c-3.575,1.347-5.353,3.984-6.213,5.949c-1.305,2.987-1.352,6.415-0.131,9.395
			l92.313,218.775c0.409,0.706,0.711,1.36,0.95,1.892l1.861,1.859v0.567h0.566l2.542,2.539c0.038,0.045,0.098,0.085,0.184,0.14
			c0.398,0.123,0.774,0.276,1.126,0.44c0.302,0.091,0.576,0.177,0.837,0.279h1.035L1451.821,1017.405z"/>
	</g>
	<g>
		<path fill="#009688" d="M1794.893,1005.387c0,11.298-9.406,20.715-20.327,20.715c-11.671,0-20.694-9.417-20.694-20.715V786.688
			c0,0,0,0,0-0.371c-0.387-6.396,2.629-13.187,8.271-17.319c9.417-6.397,22.211-4.52,28.613,4.519l121.581,168.264V786.695
			c0-10.922,9.039-20.332,20.333-20.332c11.289,0,20.699,9.41,20.699,20.332v218.691c0,11.299-9.41,20.715-20.699,20.715
			c-6.031,0-11.672-3.02-15.436-7.528c-0.756-0.761-1.506-1.507-1.884-2.268l-120.458-167.135V1005.387z"/>
		<path fill="#009688" d="M1932.67,1034.761c-8.145,0-16.281-3.856-21.826-10.33c-0.864-0.854-1.931-1.99-2.807-3.438
			l-104.473-144.955v129.35c0,15.931-13.277,29.374-28.999,29.374c-16.195,0-29.37-13.179-29.37-29.374V786.539
			c-0.459-9.46,4.057-18.833,11.825-24.539c5.329-3.627,11.233-5.453,17.331-5.453c9.403,0,18.176,4.479,23.475,11.963
			l105.842,146.469V786.695c0-15.991,13.014-29.017,29.002-29.017c15.921,0,29.369,13.299,29.369,29.017v218.691
			C1962.039,1021.582,1948.863,1034.761,1932.67,1034.761z M1922.855,1011.922c0.155,0.167,0.336,0.342,0.513,0.521l0.53,0.578
			c2.297,2.766,5.572,4.406,8.771,4.406c6.518,0,12.033-5.516,12.033-12.04V786.695c0-6.222-5.633-11.669-12.033-11.669
			c-6.325,0-11.666,5.342-11.666,11.669v181.876l-137.279-189.976c-2.126-3.017-5.539-4.705-9.373-4.705
			c-2.607,0-5.146,0.782-7.331,2.274c-2.854,2.097-4.716,5.957-4.5,9.636l0.017,0.888v218.698c0,6.741,5.279,12.04,12.028,12.04
			c6.205,0,11.66-5.63,11.66-12.04V822.317L1922.855,1011.922z"/>
	</g>
</g>
</svg>
