<?xml version="1.0" encoding="utf-8"?>
<!-- Generator: Adobe Illustrator 16.0.3, SVG Export Plug-In . SVG Version: 6.00 Build 0)  -->
<!DOCTYPE svg PUBLIC "-//W3C//DTD SVG 1.1//EN" "http://www.w3.org/Graphics/SVG/1.1/DTD/svg11.dtd">
<svg version="1.1" id="Layer_1" xmlns="http://www.w3.org/2000/svg"  x="0px" y="0px"
	 width="2000px" height="1873.549px" viewBox="0 0 2000 1873.549" enable-background="new 0 0 2000 1873.549" xml:space="preserve">
<g>
	<g>
		<path fill="#FFFFFF" d="M1516.999,876.715c0,224.698-317.748,406.872-709.7,406.872
			c-391.953-0.001-749.146-545.42-749.146-770.117c0-224.733,316.36,0,708.312,0C1158.423,513.47,1516.999,651.983,1516.999,876.715
			z"/>
	</g>
	<g>
		<path fill="#F2F2F2" d="M587.294,578.15c0,0,708.028,127.453,745.267,261.142c34.876,125.215-83.115,279.43-244.61,333.268
			c-180.444,60.161-550.204-6.188-486.372,57.574c63.848,63.786,993.182,248.969,1158.013-542.93
			c97.289-467.452-46.241-259.424-91.083-247.469c-44.873,11.931-825.118,91.588-902.043,73.735
			C652.931,487.105,443.678,581.97,587.294,578.15z"/>
	</g>
	<g>
		<g>
			<path fill="#231F20" d="M458.932,815.273c84.702,29.531,270.69,64.632,431.714,29.833
				c161.009-34.801,166.301,110.373,98.141,175.379c-53.116,50.539-174.341,103.869-313.705,82.002
				c-139.454-21.842-334.486-96.905-327.852-247.917C348.934,815.709,374.271,785.696,458.932,815.273z"/>
			<path fill="#231F20" d="M739.766,1112.316c-21.843,0-43.863-1.704-65.429-5.089c-157.14-24.61-338.37-105.61-331.892-252.874
				c1.582-35.998,22.253-55.821,58.225-55.821c16.51,0,36.65,4.11,59.847,12.207c58.275,20.332,167.547,44.073,283.684,44.073
				c52.35,0,101.278-4.859,145.43-14.397c69.956-15.121,120.505,2.77,138.533,47.771c16.738,41.812,1.236,100.171-36.083,135.756
				C949.247,1064.726,857.464,1112.316,739.766,1112.316z M400.671,808.105c-30.933,0-47.286,15.715-48.655,46.671
				c-3.866,88.107,78.608,204.571,323.808,242.973c21.077,3.313,42.596,4.994,63.942,4.994c107.509,0,200.873-43.069,245.705-85.738
				c34.643-33.023,49.162-86.876,33.801-125.252c-16.181-40.385-62.807-55.979-127.622-41.97
				c-44.802,9.696-94.419,14.602-147.448,14.602c-117.333,0-227.852-24.005-286.837-44.602
				C435.182,812.047,416.107,808.105,400.671,808.105z"/>
		</g>
		<g>
			<g>
				<path fill="#F6968E" d="M689.009,959.83c179.221,16.971,237.903,113.178,237.903,113.178s-91.135,54.465-222.259,41.848
					c-135.42-13.02-225.312-67.039-225.312-67.039S509.786,942.823,689.009,959.83z"/>
			</g>
			<g>
				<path fill="#D4807C" d="M471.929,1045.146c0,0,83.611,50.113,223.634,71.026c131.639,19.63,237.777-47.228,237.777-47.228
					c-2.19-3.553-54.728-87.14-208.478-112.571c-11.583-1.909-23.521-3.469-35.585-4.606
					C506.172,934.421,473.293,1040.623,471.929,1045.146z M489.189,1044.371c9.779-21.708,52.41-90.464,199.468-76.514
					c11.751,1.16,23.416,2.609,34.583,4.496c120.029,19.848,175.771,77.434,191.981,97.62
					c-24.271,12.185-104.176,47.032-210.326,36.794c-13.732-1.28-27.779-3.118-41.451-5.402
					C573.136,1086.437,508.747,1054.863,489.189,1044.371z"/>
			</g>
		</g>
		<g>
			<path fill="#231F20" d="M331.795,852.901c-3.214,72.647,36.434,137.015,114.423,186.151
				c78.533,49.414,172.49,70.363,221.479,78.474c1.997,0.325,4.004,0.701,5.875,0.979c139.165,21.854,266.52-29.191,325.9-85.786
				c38.436-36.638,55.498-96.339,40.767-141.946c-11.486-35.429-39.783-58.565-79.597-65.176l0,0
				c-21.443-3.542-46.221-2.358-73.859,3.638c-115.021,24.864-236.565,11.289-298.841,0.967
				c-46.657-7.688-90.982-18.434-124.778-30.243c-14.747-5.174-28.357-8.775-40.625-10.795
				c-29.751-4.956-52.958-0.713-68.744,12.608C340.428,813.073,332.809,830.783,331.795,852.901z M347.231,854.57
				c1.415-32.286,19.198-58.457,73.773-49.403c11.096,1.779,23.677,5.089,37.928,10.106c31.019,10.795,75.536,22.374,127.419,30.944
				c90.11,14.928,202.176,20.923,304.295-1.111c27.111-5.84,49.74-6.636,68.394-3.566c92.312,15.304,86.41,124.867,29.747,178.946
				c-53.116,50.539-174.341,103.869-313.705,82.002c-1.886-0.289-3.877-0.604-5.788-0.918
				C530.321,1078.532,340.743,1003.551,347.231,854.57z"/>
			<path fill="#231F20" d="M740.071,1137.253c-0.016,0-0.016,0-0.016,0c-22.979,0-46.064-1.789-68.586-5.332l-5.911-0.991
				c-50.149-8.304-146.161-29.784-226.569-80.369C356.553,998.62,314.803,930.069,318.22,852.298
				c1.196-26.062,10.483-47.106,26.826-60.896c18.867-15.933,45.907-21.263,79.729-15.642c13.114,2.175,27.561,6.008,42.886,11.399
				c33.071,11.544,76.585,22.084,122.497,29.651c35.562,5.898,91.095,12.933,153.633,12.933c50.708,0,97.866-4.641,140.134-13.779
				c29.067-6.31,55.781-7.579,78.927-3.771c45.126,7.495,77.194,33.918,90.312,74.411c16.264,50.359-2.371,115.945-44.324,155.955
				C963.005,1086.232,865.108,1137.253,740.071,1137.253z M400.696,816.93c-26.436,0-38.738,11.797-39.89,38.22
				c-5.804,133.014,163.741,208.658,310.713,233.027l5.571,0.881c20.718,3.241,41.775,4.896,62.676,4.896
				c105.075,0,196.078-41.847,239.663-83.308c30.222-28.865,44.356-75.21,33.578-110.216c-7.684-24.949-27.109-40.663-56.196-45.486
				c-17.703-2.914-39.186-1.764-63.315,3.434c-89.436,19.327-199.057,19.544-309.359,1.244
				c-47.985-7.929-94.039-19.123-129.676-31.524c-13.199-4.654-25.163-7.858-35.611-9.525
				C412.264,817.486,406.181,816.93,400.696,816.93z"/>
		</g>
	</g>
	<g>
		<g>
			<path fill="#211F1F" d="M922.4,672.967c0,40.167-32.565,72.719-72.724,72.719c-40.204,0-72.743-32.552-72.743-72.719
				c0-40.181,32.539-72.744,72.743-72.744C889.835,600.223,922.4,632.786,922.4,672.967z"/>
		</g>
		<g>
			<path fill="#FFFFFF" d="M896.953,646.566c0,15.908-12.774,28.708-28.59,28.708c-15.826,0-28.631-12.8-28.631-28.708
				c0-15.786,12.805-28.6,28.631-28.6C884.178,617.967,896.953,630.78,896.953,646.566z"/>
		</g>
	</g>
	<g>
		<g>
			<path fill="#211F1F" d="M525.875,646.627c0,40.19-32.555,72.732-72.717,72.732c-40.18,0-72.744-32.542-72.744-72.732
				c0-40.18,32.564-72.732,72.744-72.732C493.32,573.896,525.875,606.448,525.875,646.627z"/>
		</g>
		<g>
			<path fill="#FFFFFF" d="M500.443,620.24c0,15.907-12.789,28.707-28.585,28.707c-15.852,0-28.651-12.8-28.651-28.707
				c0-15.787,12.8-28.611,28.651-28.611C487.654,591.629,500.443,604.454,500.443,620.24z"/>
		</g>
	</g>
	<g>
		<path fill="#E7E6E6" d="M782.156,1339.915c-37.519,0-75.933-1.354-115.341-4.073l5.612-81.291
			c373.338,25.795,653.483-77.698,832.661-307.532c146.125-187.433,182.015-405.602,190.653-490.698l81.056,8.231
			c-9.348,92.132-48.299,328.422-207.452,532.558C1391.79,1224.865,1127.288,1339.915,782.156,1339.915z"/>
	</g>
	<g>
		<path fill="#231F20" d="M1713.776,1080.126c-59.918,0-117.149-18.52-165.499-53.549l63.75-87.973
			c29.686,21.516,64.866,32.902,101.749,32.902c95.799,0,173.743-77.942,173.743-173.749c0-82.038-58.185-153.586-138.339-170.145
			l21.99-106.396c130.37,26.933,224.982,143.239,224.982,276.541C1996.153,953.459,1869.474,1080.126,1713.776,1080.126z"/>
	</g>
	<g>
		<g>
			<path fill="#231F20" d="M922.877,1387.225c-506.756,0-919.03-412.285-919.03-919.036c0-41.569,2.813-83.514,8.39-124.647
				l107.65,14.565c-4.917,36.335-7.406,73.36-7.406,110.083c0,446.843,363.545,810.392,810.397,810.392
				c446.862,0,810.406-363.548,810.406-810.392c0-36.976-2.504-74.109-7.44-110.421l107.639-14.662
				c5.597,41.133,8.445,83.223,8.445,125.083C1841.927,974.94,1429.647,1387.225,922.877,1387.225z"/>
		</g>
		<g>
			<path fill="#231F20" d="M923.211,567.779c-232.459,0-451.465-15.545-616.676-43.783C98.48,488.423,9.722,441.354,9.722,366.604
				c0-74.749,88.758-121.83,296.813-157.38c165.211-28.249,384.217-43.771,616.676-43.771c232.475,0,451.495,15.534,616.691,43.771
				c208.061,35.55,296.833,82.631,296.833,157.38c0,74.763-88.772,121.82-296.812,157.393
				C1374.706,552.234,1155.687,567.779,923.211,567.779z M136.64,366.604c29.072,14.059,93.355,36.578,229.641,56.922
				c153.841,22.979,351.617,35.622,556.931,35.622c205.314,0,403.115-12.644,556.956-35.622
				c136.29-20.344,200.569-42.863,229.646-56.921c-29.076-14.057-93.355-36.563-229.646-56.919
				c-153.841-22.944-351.622-35.612-556.956-35.612c-205.313,0-403.089,12.657-556.931,35.611
				C229.995,330.041,165.712,352.546,136.64,366.604z"/>
		</g>
	</g>
	<g>
		<path fill="#231F20" d="M347.064,1557.419c-11.208,0-22.437-3.434-32.048-10.444l-96.918-70.857
			c-24.221-17.697-29.502-51.687-11.796-75.899c17.696-24.234,51.686-29.505,75.912-11.809l59.953,43.842l193.812-187.685
			c21.555-20.864,55.943-20.331,76.809,1.233c20.86,21.563,20.317,55.94-1.237,76.803L384.86,1542.127
			C374.407,1552.271,360.771,1557.419,347.064,1557.419z"/>
	</g>
	<g>
		<path fill="#231F20" d="M1134.364,1725.171c-16.424,0-32.655-7.435-43.342-21.541c-18.107-23.922-13.403-57.983,10.514-76.104
			l59.198-44.82l-124.094-239.492c-13.809-26.63-3.397-59.411,23.247-73.214c26.624-13.816,59.401-3.41,73.209,23.231
			l145.164,280.167c12.155,23.487,5.646,52.327-15.452,68.283l-95.697,72.465C1157.308,1721.569,1145.78,1725.171,1134.364,1725.171
			z"/>
	</g>
	<g opacity="0.4">
		<path fill="#D1D2D2" d="M1536.912,1821.703c0,20.114-299.267,36.396-668.438,36.396c-369.166,0-668.442-16.283-668.442-36.396
			c0-20.102,299.277-36.383,668.442-36.383C1237.646,1785.32,1536.912,1801.601,1536.912,1821.703z"/>
	</g>
	<g>
		<path fill="#C2986B" d="M1717.122,363.776c0,55.373-322.971,96.653-770.522,96.64c-447.596,0-826.363-41.244-826.363-96.604
			c0-28.347,100.907-52.993,259.402-70.302c48.462-5.294,102.287-9.899,160.283-13.72c45.233-2.974,80.804-44.422,129.702-53.535
			c22.264-4.159,62.467,11.373,80.539-0.447c67.121-43.915,89.609-152.583,146.79-152.583c50.926,0,26.268,146.526,116.948,148.146
			c45.704,0.798,69.265-7.785,131.536-88.361C1195.073,68.777,1187.673-4.28,1255.62,8.46c76.646,14.36-11.304,219.5,61.237,240.907
			c96.537,28.478,110.619-81.518,143.315-78.789c40.555,3.41,22.975,85.559,56.826,89.886c41.406,5.294,64.704-37.218,93.112-26.255
			c24.616,9.524,55.944,72.091,70.979,82.944C1705.221,334.561,1717.112,351.967,1717.122,363.776z"/>
	</g>
</g>
</svg>
