<?xml version="1.0" encoding="utf-8"?>
<!-- Generator: Adobe Illustrator 16.0.3, SVG Export Plug-In . SVG Version: 6.00 Build 0)  -->
<!DOCTYPE svg PUBLIC "-//W3C//DTD SVG 1.1//EN" "http://www.w3.org/Graphics/SVG/1.1/DTD/svg11.dtd">
<svg version="1.1" id="Layer_1" xmlns="http://www.w3.org/2000/svg"  x="0px" y="0px"
	 width="1806.666px" height="433.333px" viewBox="0 0 1806.666 433.333" enable-background="new 0 0 1806.666 433.333"
	 xml:space="preserve">
<g>
	<g>
		<path fill="#FFFFFF" d="M373.162,218.906c0,52.997-74.94,95.964-167.38,95.964C113.34,314.874,29.1,186.235,29.1,133.238
			c0-53,74.612,0,167.055,0C288.595,133.238,373.162,165.909,373.162,218.906z"/>
	</g>
	<g>
		<path fill="#F2F2F2" d="M153.893,148.494c0,0,166.989,30.06,175.769,61.588c8.229,29.537-19.605,65.907-57.688,78.603
			c-42.554,14.184-129.768-1.459-114.709,13.581c15.057,15.043,234.24,58.716,273.115-128.055
			c22.944-110.243-10.907-61.181-21.486-58.363c-10.576,2.818-194.598,21.6-212.738,17.39
			C169.374,127.021,120.025,149.398,153.893,148.494z"/>
	</g>
	<g>
		<g>
			<path fill="#231F20" d="M123.622,204.418c19.974,6.965,63.84,15.245,101.815,7.034c37.974-8.208,39.224,26.03,23.149,41.369
				c-12.527,11.918-41.119,24.494-73.99,19.336c-32.887-5.15-78.886-22.848-77.319-58.471
				C97.682,204.522,103.651,197.439,123.622,204.418z"/>
			<path fill="#231F20" d="M189.854,274.474c-5.153,0-10.343-0.401-15.433-1.202c-37.062-5.807-79.802-24.903-78.271-59.635
				c0.372-8.492,5.249-13.165,13.728-13.165c3.897,0,8.645,0.967,14.116,2.878c13.744,4.793,39.512,10.393,66.903,10.393
				c12.349,0,23.89-1.143,34.303-3.394c16.497-3.566,28.421,0.652,32.671,11.264c3.95,9.864,0.293,23.628-8.505,32.024
				C239.26,263.248,217.61,274.474,189.854,274.474z M109.877,202.731c-7.289,0-11.149,3.704-11.472,11.004
				c-0.913,20.775,18.538,48.247,76.366,57.304c4.975,0.782,10.046,1.178,15.082,1.178c25.354,0,47.375-10.154,57.953-20.216
				c8.167-7.794,11.592-20.497,7.967-29.549c-3.811-9.519-14.806-13.194-30.097-9.895c-10.569,2.286-22.273,3.443-34.78,3.443
				c-27.672,0-53.736-5.664-67.648-10.516C118.018,203.656,113.518,202.731,109.877,202.731z"/>
		</g>
		<g>
			<g>
				<path fill="#F6968E" d="M177.884,238.514c42.269,4.003,56.107,26.691,56.107,26.691s-21.49,12.846-52.42,9.872
					c-31.936-3.072-53.137-15.81-53.137-15.81S135.615,234.501,177.884,238.514z"/>
			</g>
			<g>
				<path fill="#D4807C" d="M126.686,258.636c0,0,19.721,11.815,52.743,16.75c31.045,4.635,56.077-11.138,56.077-11.138
					c-0.517-0.839-12.904-20.553-49.167-26.553c-2.729-0.449-5.551-0.812-8.393-1.081
					C134.761,232.519,127.009,257.564,126.686,258.636z M130.755,258.455c2.306-5.121,12.363-21.337,47.046-18.048
					c2.771,0.269,5.521,0.617,8.159,1.062c28.308,4.682,41.451,18.263,45.271,23.027c-5.725,2.868-24.564,11.088-49.602,8.672
					c-3.24-0.304-6.548-0.733-9.778-1.273C150.556,268.369,135.37,260.931,130.755,258.455z"/>
			</g>
		</g>
		<g>
			<path fill="#231F20" d="M93.636,213.291c-0.757,17.135,8.592,32.317,26.989,43.907c18.52,11.652,40.678,16.592,52.233,18.508
				c0.471,0.07,0.944,0.16,1.385,0.229c32.819,5.158,62.858-6.886,76.865-20.23c9.062-8.64,13.087-22.722,9.611-33.478
				c-2.707-8.356-9.382-13.815-18.771-15.375l0,0c-5.061-0.832-10.905-0.555-17.418,0.861c-27.127,5.864-55.793,2.661-70.48,0.227
				c-11.01-1.814-21.461-4.349-29.436-7.133c-3.479-1.221-6.687-2.07-9.578-2.547c-7.018-1.17-12.491-0.165-16.211,2.974
				C95.673,203.9,93.877,208.079,93.636,213.291z M97.277,213.686c0.331-7.608,4.527-13.786,17.398-11.648
				c2.615,0.417,5.585,1.202,8.946,2.381c7.316,2.547,17.815,5.276,30.05,7.298c21.25,3.522,47.684,4.938,71.765-0.264
				c6.399-1.377,11.734-1.562,16.133-0.836c21.771,3.608,20.381,29.448,7.017,42.205c-12.527,11.918-41.119,24.494-73.99,19.336
				c-0.44-0.064-0.91-0.139-1.36-0.215C140.459,266.508,95.745,248.827,97.277,213.686z"/>
			<path fill="#231F20" d="M189.927,280.359C189.927,280.359,189.927,280.359,189.927,280.359c-5.422,0-10.865-0.426-16.181-1.26
				l-1.391-0.231c-11.824-1.96-34.459-7.02-53.439-18.956c-19.443-12.251-29.292-28.419-28.482-46.761
				c0.287-6.143,2.472-11.108,6.324-14.364c4.454-3.758,10.832-5.017,18.804-3.685c3.095,0.508,6.498,1.415,10.115,2.685
				c7.812,2.727,18.075,5.213,28.894,6.995c8.395,1.392,21.492,3.047,36.239,3.047c11.958,0,23.075-1.091,33.044-3.247
				c6.843-1.486,13.146-1.79,18.614-0.889c10.643,1.768,18.206,7.997,21.3,17.547c3.837,11.878-0.557,27.348-10.45,36.783
				C242.504,268.328,219.415,280.359,189.927,280.359z M109.887,204.811c-6.238,0-9.14,2.779-9.409,9.013
				c-1.37,31.371,38.62,49.21,73.282,54.959c0.431,0.071,0.875,0.143,1.294,0.205c4.905,0.767,9.87,1.154,14.798,1.154
				c24.784,0,46.246-9.867,56.525-19.645c7.128-6.804,10.46-17.737,7.918-25.995c-1.814-5.883-6.396-9.593-13.25-10.728
				c-4.18-0.689-9.245-0.42-14.937,0.81c-21.091,4.556-46.941,4.605-72.962,0.293c-11.317-1.871-22.179-4.509-30.579-7.436
				c-3.12-1.096-5.943-1.848-8.401-2.244C112.615,204.939,111.178,204.811,109.887,204.811z"/>
		</g>
	</g>
	<g>
		<g>
			<path fill="#211F1F" d="M232.928,170.854c0,9.474-7.681,17.149-17.153,17.152c-9.479,0-17.154-7.675-17.154-17.15
				c0-9.477,7.674-17.155,17.154-17.155C225.247,153.702,232.928,161.38,232.928,170.854z"/>
		</g>
		<g>
			<path fill="#FFFFFF" d="M226.93,164.63c0,3.751-3.019,6.77-6.742,6.77c-3.739,0-6.76-3.018-6.76-6.77
				c0-3.724,3.021-6.748,6.76-6.748C223.911,157.882,226.93,160.906,226.93,164.63z"/>
		</g>
	</g>
	<g>
		<g>
			<path fill="#211F1F" d="M139.409,164.643c0,9.477-7.679,17.152-17.151,17.152c-9.48,0-17.157-7.673-17.157-17.15
				c0-9.474,7.677-17.154,17.157-17.154C131.73,147.49,139.409,155.17,139.409,164.643z"/>
		</g>
		<g>
			<path fill="#FFFFFF" d="M133.412,158.42c0,3.754-3.015,6.77-6.742,6.77c-3.738,0-6.758-3.016-6.758-6.77
				c0-3.724,3.02-6.745,6.758-6.745C130.396,151.676,133.412,154.697,133.412,158.42z"/>
		</g>
	</g>
	<g>
		<path fill="#E7E7E7" d="M199.854,328.153c-8.848,0-17.909-0.32-27.202-0.962l1.321-19.169
			c88.057,6.073,154.123-18.327,196.377-72.534c34.465-44.204,42.931-95.662,44.97-115.729l19.117,1.94
			c-2.209,21.728-11.395,77.459-48.932,125.605C343.629,301.018,281.251,328.153,199.854,328.153z"/>
	</g>
	<g>
		<path fill="#231F20" d="M419.57,266.887c-14.125,0-27.622-4.367-39.031-12.63l15.03-20.751c7.008,5.075,15.309,7.762,24.001,7.762
			c22.597,0,40.978-18.384,40.978-40.981c0-19.346-13.72-36.223-32.626-40.129l5.183-25.092
			c30.748,6.353,53.066,33.782,53.066,65.221C486.171,237.011,456.293,266.887,419.57,266.887z"/>
	</g>
	<g>
		<g>
			<path fill="#231F20" d="M233.04,339.313c-119.516,0-216.752-97.238-216.752-216.754c0-9.833,0.667-19.722,1.98-29.399
				l25.387,3.445c-1.158,8.54-1.745,17.269-1.745,25.954c0,105.39,85.741,191.131,191.129,191.131
				c105.393,0,191.133-85.742,191.133-191.134c0-8.714-0.59-17.476-1.757-26.04l25.389-3.458c1.322,9.707,1.99,19.63,1.99,29.498
				C449.795,242.075,352.561,339.313,233.04,339.313z"/>
		</g>
		<g>
			<path fill="#231F20" d="M233.119,146.048c-54.825,0-106.476-3.667-145.438-10.326c-49.067-8.389-70.005-19.49-70.005-37.121
				c0-17.629,20.938-28.729,70.005-37.116c38.963-6.662,90.614-10.329,145.438-10.329c54.83,0,106.485,3.667,145.448,10.329
				c49.069,8.386,70.005,19.484,70.005,37.116c0,17.631-20.936,28.732-70.005,37.121
				C339.604,142.381,287.949,146.048,233.119,146.048z M47.612,98.602c6.856,3.316,22.014,8.625,54.16,13.426
				c36.279,5.417,82.927,8.398,131.348,8.398c48.426,0,95.074-2.981,131.357-8.401c32.144-4.798,47.304-10.106,54.161-13.423
				c-6.857-3.317-22.017-8.626-54.161-13.424c-36.283-5.417-82.931-8.398-131.357-8.398c-48.42,0-95.068,2.981-131.348,8.398
				C69.626,89.976,54.468,95.288,47.612,98.602z"/>
		</g>
	</g>
	<g>
		<path fill="#C3996B" d="M420.359,97.933c0,13.062-76.167,22.796-181.727,22.796c-105.56,0-194.888-9.729-194.888-22.792
			c0-6.681,23.793-12.493,61.177-16.578c11.425-1.249,24.123-2.332,37.797-3.235c10.67-0.701,19.062-10.474,30.594-12.624
			c5.253-0.98,14.728,2.683,18.994-0.108c15.832-10.358,21.131-35.988,34.623-35.988c12.009,0,6.195,34.564,27.58,34.944
			c10.779,0.189,16.335-1.839,31.022-20.842c11.703-15.146,9.96-32.382,25.987-29.376c18.078,3.389-2.668,51.773,14.439,56.82
			c22.771,6.715,26.091-19.226,33.803-18.579c9.563,0.802,5.414,20.175,13.4,21.197c9.764,1.247,15.263-8.781,21.964-6.189
			c5.806,2.243,13.19,16.994,16.736,19.556C417.552,91.045,420.358,95.146,420.359,97.933z"/>
	</g>
	<g>
		<path fill="#231F20" d="M97.235,379.455c-2.641,0-5.291-0.812-7.556-2.468L66.82,360.281c-5.713-4.173-6.958-12.189-2.784-17.904
			c4.179-5.711,12.194-6.961,17.902-2.784l14.143,10.341l45.709-44.266c5.083-4.919,13.193-4.792,18.116,0.294
			c4.922,5.079,4.79,13.191-0.292,18.112l-53.466,51.772C103.684,378.238,100.468,379.455,97.235,379.455z"/>
	</g>
	<g>
		<path fill="#231F20" d="M282.92,419.011c-3.875,0-7.704-1.749-10.223-5.076c-4.271-5.643-3.16-13.677,2.481-17.95l13.959-10.565
			l-29.268-56.484c-3.255-6.28-0.801-14.013,5.479-17.269c6.285-3.254,14.015-0.799,17.269,5.481l34.238,66.067
			c2.869,5.543,1.332,12.346-3.642,16.111l-22.572,17.091C288.331,418.167,285.613,419.011,282.92,419.011z"/>
	</g>
	<g>
		<g>
			<path fill="#009789" d="M576.301,220.957c0.238-46.746,39.429-84.76,86.65-84.997c20.779,0,39.663,6.851,54.543,18.417
				c5.665,4.726,6.608,12.983,2.362,18.892c-4.721,5.898-13.46,6.843-18.889,2.594c-10.393-8.502-23.378-12.982-38.016-12.982
				c-16.291,0-31.407,6.604-42.5,17c-10.625,10.854-17.234,25.023-17.234,41.077c0,16.057,6.609,30.694,17.234,41.08
				c11.093,10.392,26.209,17.002,42.5,17.002c14.638,0,27.39-4.479,38.016-12.984c5.429-4.016,14.168-3.068,18.889,2.594
				c4.246,5.911,3.303,14.4-2.362,18.89c-14.881,11.569-33.764,18.424-54.543,18.424
				C615.729,305.958,576.539,267.942,576.301,220.957z"/>
			<path fill="#009789" d="M662.951,311.393c-50.528,0-91.834-40.557-92.087-90.404c0.252-49.658,41.543-90.212,92.058-90.466
				c21.439,0,41.453,6.76,57.905,19.562c7.923,6.597,9.37,18.122,3.438,26.355l-0.166,0.224c-3.639,4.549-9.333,7.256-15.23,7.256
				c-4.144,0-8.146-1.337-11.258-3.773c-9.489-7.764-21.441-11.836-34.66-11.836c-14.275,0-28.01,5.492-38.692,15.457
				c-10.208,10.474-15.602,23.333-15.602,37.19c0,13.944,5.685,27.508,15.594,37.192c10.612,9.94,24.383,15.464,38.7,15.464
				c13.189,0,24.835-3.98,34.617-11.809l0.166-0.124c3.067-2.265,6.991-3.52,11.049-3.52c5.98,0,11.537,2.562,15.246,7.015
				l0.236,0.301c5.974,8.297,4.452,20.111-3.394,26.326C704.375,304.63,684.361,311.393,662.951,311.393z M662.951,141.399
				c-44.548,0.222-80.994,35.921-81.206,79.59c0.212,43.828,36.648,79.53,81.206,79.53c18.972,0,36.675-5.968,51.203-17.266
				c3.217-2.552,3.854-7.681,1.395-11.264c-1.618-1.849-4.132-2.95-6.766-2.95c-1.714,0-3.314,0.474-4.513,1.335
				c-11.745,9.356-25.642,14.098-41.319,14.098c-17.083,0-33.5-6.55-46.217-18.458c-12.074-11.812-18.957-28.201-18.957-45.058
				c0-16.804,6.497-32.316,18.786-44.878l0.17-0.177c12.721-11.91,29.134-18.456,46.217-18.456c15.751,0,30.09,4.911,41.457,14.21
				c1.115,0.874,2.734,1.39,4.461,1.39c2.577,0,5.056-1.143,6.653-3.07c2.514-3.613,1.865-8.605-1.51-11.417
				C699.629,147.372,681.923,141.399,662.951,141.399z"/>
		</g>
		<g>
			<path fill="#009789" d="M824.677,305.961c-38.011,0-68.234-30.691-68.234-68.233v-84.056c0-7.32,5.665-12.987,12.989-12.987
				c7.079,0,13.221,5.667,13.221,12.987v84.056c0,23.138,18.887,42.022,42.024,42.022c23.375,0,42.025-18.884,42.025-42.022v-84.056
				c0-7.32,5.907-12.987,13.223-12.987c7.322,0,12.985,5.667,12.985,12.987v84.056C892.911,275.27,862.455,305.961,824.677,305.961z
				"/>
			<path fill="#009789" d="M824.677,311.393c-40.62,0-73.671-33.044-73.671-73.665v-84.056c0-10.331,8.091-18.431,18.425-18.431
				c10.289,0,18.655,8.265,18.655,18.431v84.056c0,20.171,16.414,36.586,36.59,36.586c20.178,0,36.592-16.415,36.592-36.586v-84.056
				c0-10.331,8.194-18.431,18.656-18.431c10.331,0,18.421,8.1,18.421,18.431v84.056
				C898.347,278.349,865.304,311.393,824.677,311.393z M769.432,146.123c-4.301,0-7.549,3.245-7.549,7.55v84.056
				c0,34.622,28.168,62.791,62.795,62.791c34.626,0,62.8-28.169,62.8-62.791v-84.056c0-4.305-3.247-7.55-7.552-7.55
				c-4.361,0-7.784,3.314-7.784,7.55v84.056c0,26.166-21.288,47.459-47.465,47.459c-26.169,0-47.459-21.294-47.459-47.459v-84.056
				C777.218,149.506,773.724,146.123,769.432,146.123z"/>
		</g>
		<g>
			<path fill="#009789" d="M994.197,241.734h-29.045v51.232c0,7.089-5.9,12.995-13.219,12.995c-7.084,0-12.986-5.906-12.986-12.995
				V153.672c0-7.323,5.902-12.989,12.986-12.989h0.234h42.029c28.096,0,50.764,22.664,50.764,50.767
				C1044.961,219.073,1022.293,241.734,994.197,241.734z M965.152,215.527h29.045c13.694,0,24.321-10.856,24.552-24.077
				c-0.23-13.7-10.857-24.559-24.552-24.559h-29.045V215.527z"/>
			<path fill="#009789" d="M951.934,311.393c-10.158,0-18.429-8.268-18.429-18.427V153.672c0-10.166,8.271-18.431,18.429-18.431
				h42.264c30.988,0,56.203,25.223,56.203,56.208c0,30.723-25.215,55.724-56.203,55.724h-23.604v45.792
				C970.594,303.125,962.226,311.393,951.934,311.393z M951.934,146.123c-4.233,0-7.545,3.314-7.545,7.55v139.294
				c0,4.095,3.451,7.553,7.545,7.553c4.292,0,7.782-3.389,7.782-7.553v-56.669h34.481c24.989,0,45.322-20.121,45.322-44.848
				c0-24.991-20.333-45.327-45.322-45.327H951.934z M994.197,220.971h-34.481v-59.518h34.481c16.532,0,29.704,13.132,29.993,29.902
				C1023.895,208.046,1010.721,220.971,994.197,220.971z M970.594,210.092h23.604c10.533,0,18.929-8.238,19.121-18.737
				c-0.192-10.592-8.588-19.028-19.121-19.028h-23.604V210.092z"/>
		</g>
		<g>
			<path fill="#009789" d="M1184.871,166.891h-37.538v126.076c0,7.326-5.667,12.995-12.988,12.995
				c-7.081,0-12.99-5.669-12.99-12.995V166.891h-37.295c-7.327,0-12.994-6.135-12.994-13.218c0-7.323,5.667-12.989,12.994-12.989
				h100.812c7.085,0,12.987,5.667,12.987,12.986C1197.858,160.755,1191.956,166.891,1184.871,166.891z"/>
			<path fill="#009789" d="M1134.345,311.393c-10.161,0-18.424-8.268-18.424-18.427V172.328h-31.861
				c-10.161,0-18.429-8.372-18.429-18.655c0-10.331,8.093-18.431,18.429-18.431h100.812c10.157,0,18.422,8.265,18.422,18.428
				c0,10.109-8.436,18.658-18.422,18.658h-32.098v120.639C1152.773,303.307,1144.676,311.393,1134.345,311.393z M1084.06,146.123
				c-4.308,0-7.555,3.245-7.555,7.55c0,4.287,3.386,7.781,7.555,7.781h42.737v131.513c0,4.23,3.319,7.553,7.548,7.553
				c4.304,0,7.546-3.248,7.546-7.553V161.454h42.98c4.02,0,7.548-3.643,7.548-7.784c0-4.232-3.315-7.549-7.548-7.549
				L1084.06,146.123z"/>
		</g>
		<g>
			<path fill="#009789" d="M1353.047,161.222c14.637,15.588,23.845,36.368,23.845,59.735c0,23.381-9.208,44.389-23.845,59.739
				c-13.938,15.346-34.705,25.265-56.436,25.265c-22.666,0-43.439-9.919-57.842-25.265c-14.637-15.351-23.375-36.358-23.375-59.739
				c0-23.367,8.738-44.147,23.375-59.735c14.402-15.583,35.176-25.262,57.842-25.262
				C1318.342,135.959,1339.108,145.639,1353.047,161.222z M1349.977,220.957c0-16.052-6.376-30.932-16.056-41.319
				c-9.913-10.622-23.136-16.76-37.31-16.76c-15.107,0-28.332,6.138-38.246,16.76c-9.915,10.387-16.058,25.267-16.058,41.319
				c0,16.057,6.143,30.933,16.058,41.082c9.914,10.627,23.139,17,38.246,17c14.174,0,27.396-6.373,37.31-17
				C1343.601,251.89,1349.977,237.013,1349.977,220.957z"/>
			<path fill="#009789" d="M1296.611,311.393c-23.184,0-45.715-9.833-61.808-26.978c-16.009-16.792-24.849-39.33-24.849-63.459
				c0-23.863,8.829-46.398,24.851-63.454c15.834-17.135,38.372-26.98,61.806-26.98c22.721,0,45.334,10.121,60.49,27.071
				c16.234,17.288,25.23,39.826,25.23,63.363c0,23.808-9.006,46.354-25.353,63.494
				C1341.703,301.284,1319.1,311.393,1296.611,311.393z M1296.611,141.399c-20.402,0-40.032,8.566-53.848,23.515
				c-14.155,15.064-21.927,34.957-21.927,56.043c0,21.321,7.759,41.2,21.865,55.988c14.077,14.99,33.717,23.574,53.909,23.574
				c19.472,0,39.063-8.786,52.408-23.479c14.499-15.207,22.43-35.08,22.43-56.084c0-20.763-7.94-40.652-22.365-56.011
				C1335.867,150.163,1316.284,141.399,1296.611,141.399z M1296.611,284.472c-15.955,0-30.954-6.646-42.217-18.722
				c-11.104-11.36-17.519-27.721-17.519-44.794c0-16.955,6.401-33.384,17.558-45.078c11.249-12.046,25.854-18.438,42.178-18.438
				c15.496,0,30.153,6.564,41.282,18.49c11.132,11.95,17.519,28.359,17.519,45.026c0,16.802-6.402,33.135-17.557,44.839
				C1326.63,277.826,1311.969,284.472,1296.611,284.472z M1296.611,168.307c-13.236,0-25.089,5.208-34.271,15.04
				c-9.284,9.736-14.591,23.429-14.591,37.61c0,14.255,5.285,27.841,14.509,37.288c9.407,10.069,21.254,15.366,34.353,15.366
				c12.306,0,24.141-5.43,33.337-15.28c9.284-9.743,14.588-23.349,14.588-37.375c0-13.944-5.32-27.654-14.6-37.61
				C1320.897,173.653,1309.059,168.307,1296.611,168.307z"/>
		</g>
		<g>
			<path fill="#009789" d="M1618.658,160.281l-57.843,137.641c-0.24,0.713-0.713,1.658-1.189,2.133l-0.229,0.236
				c-0.24,0.47-0.71,0.947-1.186,1.417c0,0.476-0.232,0.476-0.232,0.703c-0.473,0.244-1.18,0.714-1.65,1.183h-0.237
				c-0.71,0.472-1.182,1.187-2.128,1.417h-0.234c0,0-0.234,0-0.234,0.235c-0.478,0-1.182,0.238-1.893,0.478
				c-0.237,0-0.471,0-0.471,0c-0.707,0.236-1.417,0.236-2.361,0.236c-0.707,0-1.413,0-2.126-0.236c-0.472,0-0.708,0-0.708,0
				c-0.709-0.239-1.178-0.478-1.652-0.478c-0.236-0.235-0.236-0.235-0.479-0.235c-0.937-0.23-1.647-0.945-2.119-1.417
				c-0.235,0-0.235,0-0.235,0c-0.705-0.469-1.181-0.938-1.65-1.183c-0.239-0.228-0.239-0.228-0.471-0.703
				c-0.239-0.47-0.713-0.947-0.948-1.417c-0.473,0-0.473-0.236-0.473-0.236c-0.47-0.475-0.704-1.42-0.946-2.133l-30.925-73.192
				l-30.929,73.192c-0.235,0.713-0.713,1.658-0.943,2.133c-0.239,0-0.239,0.236-0.239,0.236c-0.476,0.47-0.942,0.947-1.415,1.417
				c0,0.476-0.236,0.476-0.236,0.703c-0.476,0.244-0.947,0.714-1.42,1.183c-0.471,0-0.471,0-0.471,0
				c-0.708,0.472-1.42,1.187-1.893,1.417c-0.236,0-0.236,0-0.236,0s-0.232,0-0.232,0.235c-0.943,0-1.417,0.238-1.891,0.478
				c-0.235,0-0.473,0-0.707,0c-0.708,0.236-1.414,0.236-2.123,0.236c-0.713,0-1.652,0-2.36-0.236c-0.235,0-0.474,0-0.713,0
				c-0.706-0.239-1.177-0.478-1.651-0.478c-0.232-0.235-0.232-0.235-0.47-0.235c-0.71-0.23-1.655-0.945-2.126-1.417
				c-0.235,0-0.235,0-0.235,0c-0.708-0.469-0.944-0.938-1.654-1.183c-0.237-0.228-0.237-0.228-0.473-0.703
				c-0.472-0.47-0.712-0.947-1.181-1.417v-0.236c-0.475-0.475-0.707-1.42-1.181-2.133l-58.085-137.641
				c-2.598-6.377,0.238-14.173,7.088-16.767c6.374-2.831,14.166,0.239,16.762,6.849l46.279,109.318l30.454-72.484
				c2.127-5.197,7.086-8.031,12.281-8.031c4.955,0,9.913,2.833,12.274,8.031l30.459,72.484l46.039-109.318
				c2.834-6.61,10.391-9.68,17.235-6.849C1618.424,146.108,1621.493,153.904,1618.658,160.281z"/>
			<path fill="#009789" d="M1548.77,311.393c-0.707,0-1.691,0-2.813-0.237h-0.902l-0.836-0.274c-0.2-0.066-0.382-0.135-0.55-0.191
				h-1.635l-0.846-0.842c-0.908-0.396-1.654-0.908-2.234-1.379l-0.52-0.349c-0.433-0.291-0.807-0.571-1.147-0.842l-0.147-0.113
				l-0.572-0.281l-0.631-0.634c-0.631-0.638-0.945-1.104-1.304-1.78c-0.532-0.422-0.987-0.921-1.348-1.495
				c-0.777-1.111-1.147-2.278-1.386-3.041l-0.037-0.109l-25.825-61.119l-25.855,61.179c-0.226,0.644-0.52,1.291-0.823,1.922v0.74
				l-0.729,0.729l-0.914,1.842v0.665l-2.694,1.344c-0.11,0.093-0.211,0.204-0.32,0.31l-1.241,1.246v2.008h-5.096l-0.814,0.399
				l-1.436,0.066c-1.122,0.237-2.106,0.237-2.812,0.237c-0.783,0-1.863,0-3.029-0.237h-0.926l-0.836-0.274
				c-0.196-0.066-0.377-0.135-0.548-0.191h-1.64l-0.905-0.914c-0.472-0.225-0.913-0.486-1.308-0.743h-0.016l-1.368-0.912
				c-0.389-0.257-0.705-0.512-0.991-0.759l-0.584-0.184l-0.903-0.916c-0.521-0.524-0.829-0.928-1.122-1.421
				c-0.158-0.193-0.303-0.389-0.451-0.579l-0.145-0.196l-1.595-1.585l0.032-1.002c-0.05-0.104-0.099-0.203-0.139-0.297
				c-0.049-0.113-0.104-0.227-0.155-0.332l-0.424-0.803l-58.084-137.664c-1.89-4.62-1.824-9.854,0.16-14.398
				c1.92-4.4,5.417-7.769,9.86-9.501c2.238-0.973,4.618-1.463,7.07-1.463c7.398,0,14.161,4.563,16.825,11.35l41.202,97.322
				l25.461-60.603c2.818-6.886,9.608-11.358,17.292-11.358c7.364,0,14.126,4.401,17.225,11.22l25.518,60.7l41.022-97.398
				c2.931-6.829,9.597-11.231,17.006-11.231c2.501,0,4.969,0.501,7.314,1.468c4.335,1.764,7.876,5.365,9.686,9.867
				c1.847,4.573,1.775,9.724-0.18,14.131l-57.733,137.385c-0.307,0.856-0.998,2.492-2.198,3.798
				c-0.092,0.126-0.188,0.26-0.277,0.378v1.734l-3.011,1.493c-0.055,0.035-0.208,0.137-0.269,0.197l-1.211,1.209v2.008h-5.02
				c-0.189,0.049-0.387,0.125-0.582,0.191l-0.837,0.274h-0.67C1550.695,311.393,1549.687,311.393,1548.77,311.393z
				 M1462.484,300.506c0.273,0.024,0.574,0.013,0.816,0.013c0.18,0,0.363,0.012,0.545,0l0.697-0.228h0.491
				c0.315-0.118,0.685-0.223,1.092-0.303c0.014-0.006,0.021-0.008,0.032-0.014c0.39-0.31,0.798-0.631,1.206-0.902l0.243-0.166
				l1.975-1.969c0.046-0.055,0.076-0.102,0.122-0.148c0.151-0.317,0.211-0.485,0.241-0.582l0.154-0.395l35.937-85.049l35.53,84.091
				h0.176l1.347,2.685l0.26,0.383c0.05,0.076,0.106,0.15,0.168,0.237h0.422l1.589,1.595c0.03,0.027,0.055,0.051,0.08,0.084
				c0.267,0.074,0.516,0.168,0.737,0.277c0.193,0.058,0.37,0.111,0.534,0.176h0.646l0.696,0.228c0.18,0.01,0.368,0,0.549,0
				c0.294,0,0.559,0.012,0.794-0.01l0.688-0.218h0.488c0.181-0.064,0.361-0.115,0.545-0.162c0.265-0.127,0.534-0.234,0.822-0.316
				c0.305-0.264,0.622-0.501,0.963-0.74l0.256-0.168l1.044-1.041c0.105-0.111,0.217-0.213,0.316-0.324l0.237-0.479l0.633-0.621
				c0.033-0.074,0.078-0.173,0.095-0.232l0.147-0.381l57.848-137.656c0.812-1.831,0.823-3.892,0.077-5.75
				c-0.728-1.809-2.054-3.184-3.729-3.865c-4.133-1.715-8.548,0.124-10.184,3.949l-51.045,121.198l-35.469-84.398
				c-1.562-3.436-4.784-4.704-7.262-4.704c-2.585,0-5.846,1.221-7.25,4.649l-35.47,84.427l-51.303-121.192
				c-1.096-2.793-3.793-4.585-6.758-4.585c-0.971,0-1.91,0.19-2.784,0.578l-0.283,0.125c-2.243,0.844-3.356,2.5-3.897,3.731
				c-0.817,1.874-0.85,4.023-0.083,5.892l57.903,137.224c0.256,0.444,0.446,0.854,0.597,1.189l1.168,1.164v0.356h0.354l1.595,1.595
				c0.025,0.027,0.062,0.051,0.114,0.086c0.251,0.076,0.485,0.172,0.707,0.275c0.189,0.058,0.364,0.111,0.526,0.176h0.648
				L1462.484,300.506z"/>
		</g>
		<g>
			<path fill="#009789" d="M1677.673,292.966c0,7.089-5.901,12.994-12.751,12.994c-7.32,0-12.979-5.905-12.979-12.994V155.792
				c0,0,0,0,0-0.233c-0.243-4.012,1.646-8.27,5.187-10.864c5.908-4.013,13.933-2.835,17.947,2.833l76.261,105.543v-97.275
				c0-6.852,5.669-12.755,12.754-12.755c7.081,0,12.982,5.903,12.982,12.755v137.169c0,7.089-5.901,12.994-12.982,12.994
				c-3.782,0-7.322-1.895-9.683-4.722c-0.474-0.478-0.943-0.944-1.181-1.423l-75.555-104.833V292.966z"/>
			<path fill="#009789" d="M1764.091,311.393c-5.107,0-10.211-2.419-13.69-6.479c-0.54-0.536-1.21-1.249-1.76-2.157l-65.528-90.92
				v81.129c0,9.993-8.329,18.427-18.19,18.427c-10.157,0-18.423-8.268-18.423-18.427V155.698c-0.288-5.933,2.546-11.812,7.417-15.39
				c3.342-2.278,7.047-3.423,10.872-3.423c5.898,0,11.399,2.811,14.724,7.505l66.388,91.87v-80.463
				c0-10.033,8.164-18.201,18.191-18.201c9.986,0,18.422,8.341,18.422,18.201v137.169
				C1782.513,303.125,1774.248,311.393,1764.091,311.393z M1757.935,297.066c0.099,0.106,0.212,0.217,0.323,0.326l0.33,0.362
				c1.441,1.735,3.497,2.765,5.503,2.765c4.088,0,7.548-3.458,7.548-7.553V155.797c0-3.905-3.533-7.32-7.548-7.32
				c-3.968,0-7.316,3.351-7.316,7.32v114.079l-86.107-119.159c-1.331-1.893-3.473-2.952-5.879-2.952
				c-1.636,0-3.229,0.491-4.599,1.426c-1.789,1.313-2.959,3.737-2.823,6.042l0.012,0.559v137.174c0,4.23,3.311,7.553,7.544,7.553
				c3.893,0,7.314-3.529,7.314-7.553V178.14L1757.935,297.066z"/>
		</g>
	</g>
</g>
</svg>
