<?xml version="1.0" encoding="utf-8"?>
<!-- Generator: Adobe Illustrator 16.0.3, SVG Export Plug-In . SVG Version: 6.00 Build 0)  -->
<!DOCTYPE svg PUBLIC "-//W3C//DTD SVG 1.1//EN" "http://www.w3.org/Graphics/SVG/1.1/DTD/svg11.dtd">
<svg version="1.1" id="Layer_1" xmlns="http://www.w3.org/2000/svg"  x="0px" y="0px"
	 width="163px" height="163px" viewBox="0 0 163 163" enable-background="new 0 0 163 163" xml:space="preserve">
<g>
	<polygon fill="#89D0C2" points="157.89,48.415 150.191,56.113 145.079,52.398 153.975,43.502 	"/>
	<polygon fill="#64C3A7" points="159.624,50.149 151.926,57.847 147.286,54.605 156.182,45.709 	"/>
	<polyline fill="none" stroke="#009789" stroke-width="2" stroke-linecap="round" stroke-miterlimit="10" points="153.165,41.811 
		160.169,51.045 156.441,54.772 156.466,54.748 152.739,58.474 143.506,51.471 	"/>
	<g>
		<g>
			<polygon fill="none" stroke="#009789" stroke-width="2" stroke-linecap="round" stroke-miterlimit="10" points="75.773,22.042 
				70.7,27.114 64.793,21.207 66.328,17.699 69.866,16.134 			"/>
		</g>
		<g>
			<path fill="none" stroke="#009789" stroke-width="2" stroke-linecap="round" stroke-miterlimit="10" d="M67.694,19.034
				L63.96,15.3c-1.945-1.945-2.113-4.958-0.374-6.697s4.753-1.571,6.698,0.374l3.733,3.733"/>
		</g>
		
			<circle fill="none" stroke="#009789" stroke-width="2" stroke-linecap="round" stroke-miterlimit="10" cx="73.665" cy="12.356" r="1.719"/>
	</g>
	<g>
		<g>
			<polygon fill="none" stroke="#009789" stroke-width="2" stroke-linecap="round" stroke-miterlimit="10" points="102.342,126.789 
				107.415,131.861 113.322,125.955 111.787,122.447 108.249,120.881 			"/>
		</g>
		<g>
			<path fill="none" stroke="#009789" stroke-width="2" stroke-linecap="round" stroke-miterlimit="10" d="M110.421,123.781
				l3.734-3.734c1.944-1.944,2.112-4.958,0.373-6.697s-4.753-1.571-6.697,0.374l-3.733,3.733"/>
		</g>
		<path fill="none" stroke="#009789" stroke-width="2" stroke-linecap="round" stroke-miterlimit="10" d="M103.235,115.889
			c-0.672,0.672-0.67,1.762,0.001,2.434c0.67,0.67,1.758,0.67,2.43-0.002c0.671-0.672,0.671-1.758,0.001-2.428
			C104.995,115.221,103.906,115.219,103.235,115.889z"/>
	</g>
	<g>
		
			<rect x="19.94" y="20.278" transform="matrix(0.7071 -0.7071 0.7071 0.7071 -15.9728 28.8563)" fill="#80CBC4" width="13.812" height="26.862"/>
		<polygon fill="#B3E0DB" points="22.89,18.672 12.371,29.191 10.196,27.657 21.332,16.521 		"/>
		
			<line fill="none" stroke="#009789" stroke-width="2" stroke-linecap="round" stroke-miterlimit="10" x1="2.431" y1="6.765" x2="27.537" y2="39.835"/>
		<path fill="none" stroke="#009789" stroke-width="2" stroke-linecap="round" stroke-miterlimit="10" d="M6.703,27.704
			c-3.479-3.478-3.145-9.452,0.746-13.343s9.864-4.224,13.342-0.745"/>
		<polyline fill="none" stroke="#009789" stroke-width="2" stroke-linecap="round" stroke-miterlimit="10" points="36.328,43.22 
			40.595,38.954 20.47,16.277 14.928,21.82 14.959,21.791 9.416,27.333 32.093,47.457 36.358,43.191 		"/>
		<g>
			<path fill="#009789" d="M35.587,36.688c0.334,0.437,0.246,1.062-0.196,1.389l-1.072,0.793c-0.442,0.327-1.077,0.237-1.411-0.2
				l-1.086-1.418c-0.334-0.437-0.246-1.062,0.196-1.39l1.071-0.794c0.442-0.327,1.077-0.238,1.411,0.199L35.587,36.688z"/>
			<path fill="none" stroke="#009789" stroke-linecap="round" stroke-miterlimit="10" d="M35.587,36.688
				c0.334,0.437,0.246,1.062-0.196,1.389l-1.072,0.793c-0.442,0.327-1.077,0.237-1.411-0.2l-1.086-1.418
				c-0.334-0.437-0.246-1.062,0.196-1.39l1.071-0.794c0.442-0.327,1.077-0.238,1.411,0.199L35.587,36.688z"/>
		</g>
		<g>
			<path fill="#009789" d="M29.912,32.578c0.518,0.186,0.777,0.757,0.576,1.27l-0.509,1.298c-0.201,0.512-0.789,0.779-1.306,0.593
				l-1.622-0.583c-0.518-0.186-0.777-0.757-0.576-1.27l0.51-1.299c0.201-0.512,0.788-0.779,1.306-0.593L29.912,32.578z"/>
			<path fill="none" stroke="#009789" stroke-linecap="round" stroke-miterlimit="10" d="M29.912,32.578
				c0.518,0.186,0.777,0.757,0.576,1.27l-0.509,1.298c-0.201,0.512-0.789,0.779-1.306,0.593l-1.622-0.583
				c-0.518-0.186-0.777-0.757-0.576-1.27l0.51-1.299c0.201-0.512,0.788-0.779,1.306-0.593L29.912,32.578z"/>
		</g>
		<g>
			<path fill="#009789" d="M33.166,41.053c0.447,0.32,0.524,0.928,0.173,1.351l-0.855,1.028c-0.352,0.423-1.005,0.506-1.452,0.185
				l-1.308-0.939c-0.447-0.321-0.524-0.929-0.172-1.352l0.854-1.025c0.352-0.423,1.006-0.506,1.453-0.186L33.166,41.053z"/>
			<path fill="none" stroke="#009789" stroke-linecap="round" stroke-miterlimit="10" d="M33.166,41.053
				c0.447,0.32,0.524,0.928,0.173,1.351l-0.855,1.028c-0.352,0.423-1.005,0.506-1.452,0.185l-1.308-0.939
				c-0.447-0.321-0.524-0.929-0.172-1.352l0.854-1.025c0.352-0.423,1.006-0.506,1.453-0.186L33.166,41.053z"/>
		</g>
	</g>
	<g>
		<polyline fill="#B3E0DB" stroke="#009789" stroke-width="2" stroke-linecap="round" stroke-miterlimit="10" points="36.498,94.57 
			40.765,98.836 57.332,84.82 51.789,79.28 51.82,79.31 46.277,73.768 32.263,90.336 36.529,94.602 		"/>
		<polyline fill="#80CBC4" stroke="#009789" stroke-width="2" stroke-linecap="round" stroke-miterlimit="10" points="
			53.799,77.365 60.295,83.859 58.639,86.127 51.834,79.324 51.775,79.266 44.973,72.462 47.238,70.804 53.734,77.301 		"/>
		<polyline fill="#B3E0DB" stroke="#009789" stroke-width="2" stroke-linecap="round" stroke-miterlimit="10" points="
			56.337,74.818 61.836,80.318 59.779,82.891 54.017,77.13 53.97,77.083 48.209,71.323 50.783,69.265 56.283,74.764 		"/>
	</g>
	<polygon fill="#B3E0DB" points="120.826,3.644 130.99,13.809 133.154,12.264 122.393,1.503 	"/>
	<polygon fill="#89D0C2" points="114.86,9.61 125.024,19.775 132.227,13.192 121.466,2.43 	"/>
	<polygon fill="#64C3A7" points="108.106,18.146 116.607,26.648 126.667,18.132 116.844,8.309 	"/>
	<polyline fill="none" stroke="#009789" stroke-width="2" stroke-linecap="round" stroke-miterlimit="10" points="122.121,1.579 
		108.106,18.146 112.372,22.413 112.341,22.382 116.607,26.648 133.175,12.633 	"/>
	<circle fill="#B3E0DB" cx="6.673" cy="114.458" r="4.713"/>
	<circle fill="#B3E0DB" cx="10.13" cy="111.709" r="3.094"/>
	<circle fill="#B3E0DB" cx="11.874" cy="108.1" r="2.296"/>
	<polygon fill="#89D0C2" points="18.512,112.064 8.347,122.23 4.058,118.559 14.818,107.797 	"/>
	<polygon fill="#64C3A7" points="28.007,123.342 19.505,131.844 7.642,121.523 17.465,111.701 	"/>
	<polyline fill="none" stroke="#009789" stroke-width="2" stroke-linecap="round" stroke-miterlimit="10" points="2.938,117.828 
		19.505,131.844 23.771,127.578 	"/>
	<polyline fill="none" stroke="#009789" stroke-width="2" stroke-linecap="round" stroke-miterlimit="10" points="23.741,127.607 
		28.007,123.342 13.992,106.773 	"/>
	
		<line fill="none" stroke="#009789" stroke-width="2" stroke-linecap="round" stroke-miterlimit="10" x1="11.918" y1="120.857" x2="21.782" y2="129.566"/>
	
		<line fill="none" stroke="#009789" stroke-width="2" stroke-linecap="round" stroke-miterlimit="10" x1="16.964" y1="115.811" x2="25.675" y2="125.674"/>
	
		<line fill="none" stroke="#009789" stroke-width="2" stroke-linecap="round" stroke-miterlimit="10" x1="14.483" y1="118.291" x2="23.771" y2="127.578"/>
	<g>
		
			<rect x="110.142" y="63.656" transform="matrix(0.7071 -0.7071 0.7071 0.7071 -20.225 105.3472)" fill="#80CBC4" width="13.812" height="26.861"/>
		<polygon fill="#B3E0DB" points="113.092,62.049 102.573,72.568 100.398,71.034 111.534,59.899 		"/>
		
			<line fill="none" stroke="#009789" stroke-width="2" stroke-linecap="round" stroke-miterlimit="10" x1="92.633" y1="50.143" x2="117.739" y2="83.213"/>
		<path fill="none" stroke="#009789" stroke-width="2" stroke-linecap="round" stroke-miterlimit="10" d="M96.905,71.082
			c-3.479-3.478-3.145-9.452,0.746-13.343s9.864-4.224,13.342-0.745"/>
		<polyline fill="none" stroke="#009789" stroke-width="2" stroke-linecap="round" stroke-miterlimit="10" points="126.53,86.598 
			130.797,82.332 110.672,59.655 105.13,65.198 105.161,65.167 99.618,70.71 122.295,90.834 126.561,86.568 		"/>
		<g>
			<path fill="#009789" d="M125.789,80.065c0.334,0.437,0.246,1.062-0.196,1.39l-1.072,0.794c-0.442,0.327-1.077,0.237-1.411-0.199
				l-1.086-1.42c-0.334-0.437-0.246-1.062,0.196-1.39l1.071-0.794c0.442-0.327,1.077-0.238,1.411,0.199L125.789,80.065z"/>
			<path fill="none" stroke="#009789" stroke-linecap="round" stroke-miterlimit="10" d="M125.789,80.065
				c0.334,0.437,0.246,1.062-0.196,1.39l-1.072,0.794c-0.442,0.327-1.077,0.237-1.411-0.199l-1.086-1.42
				c-0.334-0.437-0.246-1.062,0.196-1.39l1.071-0.794c0.442-0.327,1.077-0.238,1.411,0.199L125.789,80.065z"/>
		</g>
		<g>
			<path fill="#009789" d="M120.113,75.955c0.518,0.186,0.777,0.757,0.576,1.27l-0.509,1.299c-0.201,0.512-0.789,0.779-1.307,0.593
				l-1.621-0.584c-0.518-0.186-0.777-0.757-0.576-1.27l0.509-1.298c0.201-0.512,0.789-0.779,1.307-0.593L120.113,75.955z"/>
			<path fill="none" stroke="#009789" stroke-linecap="round" stroke-miterlimit="10" d="M120.113,75.955
				c0.518,0.186,0.777,0.757,0.576,1.27l-0.509,1.299c-0.201,0.512-0.789,0.779-1.307,0.593l-1.621-0.584
				c-0.518-0.186-0.777-0.757-0.576-1.27l0.509-1.298c0.201-0.512,0.789-0.779,1.307-0.593L120.113,75.955z"/>
		</g>
		<g>
			<path fill="#009789" d="M123.368,84.431c0.447,0.32,0.524,0.929,0.173,1.352l-0.855,1.027c-0.352,0.423-1.005,0.506-1.452,0.186
				l-1.308-0.939c-0.447-0.32-0.524-0.929-0.173-1.352l0.854-1.027c0.352-0.423,1.005-0.506,1.452-0.186L123.368,84.431z"/>
			<path fill="none" stroke="#009789" stroke-linecap="round" stroke-miterlimit="10" d="M123.368,84.431
				c0.447,0.32,0.524,0.929,0.173,1.352l-0.855,1.027c-0.352,0.423-1.005,0.506-1.452,0.186l-1.308-0.939
				c-0.447-0.32-0.524-0.929-0.173-1.352l0.854-1.027c0.352-0.423,1.005-0.506,1.452-0.186L123.368,84.431z"/>
		</g>
	</g>
	<g>
		<polyline fill="#B3E0DB" stroke="#009789" stroke-width="2" stroke-linecap="round" stroke-miterlimit="10" points="
			135.701,157.23 139.968,161.496 156.535,147.48 150.992,141.939 151.023,141.969 145.48,136.428 131.466,152.996 135.732,157.26 
					"/>
		<polyline fill="#80CBC4" stroke="#009789" stroke-width="2" stroke-linecap="round" stroke-miterlimit="10" points="
			153.002,140.025 159.498,146.52 157.842,148.787 151.037,141.982 150.979,141.926 144.176,135.121 146.441,133.465 
			152.938,139.961 		"/>
		<polyline fill="#B3E0DB" stroke="#009789" stroke-width="2" stroke-linecap="round" stroke-miterlimit="10" points="
			155.54,137.479 161.039,142.979 158.982,145.551 153.22,139.791 153.173,139.742 147.412,133.982 149.986,131.926 
			155.486,137.424 		"/>
	</g>
	<g>
		
			<rect x="47.242" y="132.597" transform="matrix(0.7062 0.708 -0.708 0.7062 119.2997 4.5663)" fill="#80CBC4" width="13.812" height="26.86"/>
		<polygon fill="#B3E0DB" points="69.191,142.088 58.686,131.557 60.222,129.385 71.344,140.533 		"/>
		
			<line fill="none" stroke="#009789" stroke-width="2" stroke-linecap="round" stroke-miterlimit="10" x1="81.123" y1="121.645" x2="48.022" y2="146.709"/>
		<path fill="none" stroke="#009789" stroke-width="2" stroke-linecap="round" stroke-miterlimit="10" d="M60.179,125.891
			c3.481-3.475,9.455-3.133,13.342,0.762c3.886,3.896,4.211,9.871,0.729,13.344"/>
		<polyline fill="none" stroke="#009789" stroke-width="2" stroke-linecap="round" stroke-miterlimit="10" points="44.625,155.496 
			48.886,159.768 71.589,139.672 66.052,134.123 66.082,134.154 60.547,128.604 40.396,151.256 44.655,155.525 		"/>
		<g>
			<path fill="#009789" d="M51.158,154.763c-0.437,0.334-1.062,0.244-1.389-0.198l-0.792-1.072
				c-0.327-0.442-0.236-1.077,0.201-1.411l1.421-1.084c0.437-0.334,1.062-0.244,1.389,0.198l0.792,1.072
				c0.327,0.442,0.236,1.077-0.201,1.411L51.158,154.763z"/>
			<path fill="none" stroke="#009789" stroke-linecap="round" stroke-miterlimit="10" d="M51.158,154.763
				c-0.437,0.334-1.062,0.244-1.389-0.198l-0.792-1.072c-0.327-0.442-0.236-1.077,0.201-1.411l1.421-1.084
				c0.437-0.334,1.062-0.244,1.389,0.198l0.792,1.072c0.327,0.442,0.236,1.077-0.201,1.411L51.158,154.763z"/>
		</g>
		<g>
			<path fill="#009789" d="M55.275,149.093c-0.187,0.518-0.759,0.775-1.271,0.574l-1.298-0.512
				c-0.512-0.201-0.778-0.789-0.591-1.307l0.586-1.621c0.187-0.518,0.759-0.775,1.271-0.574l1.298,0.512
				c0.512,0.201,0.778,0.789,0.591,1.307L55.275,149.093z"/>
			<path fill="none" stroke="#009789" stroke-linecap="round" stroke-miterlimit="10" d="M55.275,149.093
				c-0.187,0.518-0.759,0.775-1.271,0.574l-1.298-0.512c-0.512-0.201-0.778-0.789-0.591-1.307l0.586-1.621
				c0.187-0.518,0.759-0.775,1.271-0.574l1.298,0.512c0.512,0.201,0.778,0.789,0.591,1.307L55.275,149.093z"/>
		</g>
		<g>
			<path fill="#009789" d="M46.797,152.337c-0.321,0.446-0.929,0.523-1.352,0.171l-1.026-0.857
				c-0.422-0.353-0.505-1.006-0.184-1.452l0.94-1.307c0.321-0.446,0.93-0.523,1.352-0.171l1.025,0.855
				c0.422,0.353,0.505,1.006,0.184,1.452L46.797,152.337z"/>
			<path fill="none" stroke="#009789" stroke-linecap="round" stroke-miterlimit="10" d="M46.797,152.337
				c-0.321,0.446-0.929,0.523-1.352,0.171l-1.026-0.857c-0.422-0.353-0.505-1.006-0.184-1.452l0.94-1.307
				c0.321-0.446,0.93-0.523,1.352-0.171l1.025,0.855c0.422,0.353,0.505,1.006,0.184,1.452L46.797,152.337z"/>
		</g>
	</g>
</g>
</svg>
